<svg width="205" height="136" viewBox="0 0 205 136" fill="none" xmlns="http://www.w3.org/2000/svg">
<g clip-path="url(#clip0_3771_13601)">
<path d="M118.825 117.562H47.8647C45.1546 117.562 42.957 115.812 42.957 113.654V111.331C42.957 109.172 45.1546 107.423 47.8647 107.423H118.824C115.578 110.248 115.522 114.567 118.693 117.445L118.825 117.562Z" fill="#2F5C06"/>
<path d="M117.73 108.583H78.3728C75.6627 108.583 73.4648 110.333 73.4648 112.492C73.4648 114.649 75.6615 116.399 78.3728 116.399H117.734C115.894 114.002 115.898 110.974 117.73 108.583Z" fill="url(#paint0_linear_3771_13601)"/>
<path d="M102.754 100.379C102.857 100.231 102.7 100.059 102.462 100.059H64.9148C61.9721 100.059 59.5859 101.707 59.5859 103.741C59.5859 105.774 61.9721 107.424 64.9148 107.424H102.472C102.711 107.424 102.869 107.25 102.764 107.101C101.278 104.973 101.282 102.498 102.754 100.379Z" fill="#39900E"/>
<path d="M102.519 100.744H83.9106C80.4565 100.744 77.6562 102.126 77.6562 103.83C77.6562 105.533 80.4565 106.915 83.9106 106.915H102.641C101.361 104.952 101.326 102.716 102.519 100.744Z" fill="url(#paint1_linear_3771_13601)"/>
<path d="M97.0534 99.7926H75.2074C73.2704 99.7926 71.6992 98.3616 71.6992 96.5961C71.6992 94.8308 73.2693 93.3999 75.2074 93.3999H97.0545C95.3851 95.1722 95.3198 97.7714 96.8987 99.6115L97.0534 99.7926Z" fill="url(#paint2_linear_3771_13601)"/>
<path d="M71.7012 96.596C71.7012 94.8305 73.3086 93.3998 75.2918 93.3998H97.4697C97.5735 93.3998 97.6569 93.3243 97.6558 93.2325C97.6546 93.1414 97.5724 93.0686 97.4697 93.0686H62.2873C60.0986 93.0686 58.3242 94.6478 58.3242 96.5969C58.3242 98.5451 60.0986 100.125 62.2873 100.125H97.4697C97.5712 100.125 97.6546 100.052 97.6558 99.9613C97.6569 99.8695 97.5735 99.794 97.4697 99.794H75.2918C73.3086 99.7922 71.7012 98.3615 71.7012 96.596Z" fill="#2F5C06"/>
<path d="M110.134 86.2124H54.2334C52.4975 86.2124 51.0898 87.2931 51.0898 88.6262V90.656C51.0898 91.9888 52.4975 93.0695 54.2334 93.0695H110.134L110.105 93.0462C107.713 91.1342 107.725 88.1114 110.134 86.2124Z" fill="#39900E"/>
<path d="M109.145 87.2275H79.2607C77.5246 87.2275 76.1172 88.3083 76.1172 89.6411C76.1172 90.9741 77.5246 92.0549 79.2607 92.0549H109.143C108.045 90.5598 108.046 88.7208 109.145 87.2275Z" fill="url(#paint3_linear_3771_13601)"/>
<path d="M106.495 90.0444C108.355 89.419 109.967 88.0869 110.909 86.3785C111.175 85.9072 111.392 85.366 111.32 84.8301C111.302 84.7211 111.274 84.5919 111.176 84.5409C111.087 84.4901 110.967 84.518 110.867 84.5461C107.76 85.3802 104.475 86.786 101.214 86.6378C101.065 86.6355 100.916 86.6233 100.786 86.6809C100.625 86.7477 100.524 86.8946 100.452 87.0519C100.205 87.563 99.9914 88.5302 100.072 89.1055C100.171 89.7903 100.836 89.8893 101.421 90.0369C103.086 90.458 104.835 90.6033 106.495 90.0444Z" fill="#D9ABA1"/>
<path d="M106.784 86.2067C107.034 86.1017 107.294 85.9966 107.563 85.9909C107.832 85.985 108.128 86.128 108.214 86.3869C108.271 86.5659 108.218 86.7532 108.146 86.9205C107.95 87.3532 107.606 87.7043 107.243 88.0157C105.853 89.1828 104.071 89.8884 102.249 89.9995C101.442 90.0466 100.597 89.9746 99.8867 89.5974C100.241 89.1672 100.171 88.5522 100.209 88.0082C100.323 86.4161 101.687 87.0209 102.782 87.0175C104.155 86.9887 105.522 86.7224 106.784 86.2067Z" fill="#D9ABA1"/>
<path d="M65.156 74.4294L65.0936 74.6067C64.6565 75.8674 64.3182 77.1691 64.1786 78.5035C63.9221 80.9551 64.4057 83.8238 66.2589 85.6043C68.73 87.9782 72.6941 88.3451 75.9164 87.7798C77.2354 87.5504 78.4774 87.0013 79.5326 86.1812C80.5827 87.1277 81.7111 88.1645 82.65 89.2183C84.5363 88.5618 86.3318 87.6708 87.9937 86.5665C91.926 88.3585 95.9372 89.5678 100.172 90.4436C100.656 89.2453 100.996 87.9942 101.184 86.7163C101.217 86.5089 98.5778 84.7364 98.2733 84.4843C97.3597 83.718 95.4561 81.9665 95.4561 81.9665C95.4561 81.9665 97.8553 79.9336 98.9044 78.9791C100.015 77.9871 101.08 76.946 102.096 75.859C102.936 74.9609 103.756 74.0128 104.271 72.8919C104.785 71.7808 104.974 70.467 104.544 69.312C103.186 65.7172 97.7047 66.9809 95.1586 68.2196C93.0535 69.2471 91.2101 70.744 89.4357 72.2618C88.72 72.8647 88.0142 73.4878 87.3183 74.101C86.7698 73.5381 86.1639 72.8062 85.6457 72.2144C85.0884 71.5723 84.451 70.9687 83.6807 70.5906C82.8709 70.1823 82.1241 70.2404 81.2603 70.1184C80.8731 70.0631 80.4968 69.9484 80.1196 69.8834C78.9885 69.678 77.7913 69.8977 76.7975 70.4766C75.8538 71.0267 75.0878 71.6786 73.9801 71.8896C72.7228 72.1278 71.2625 71.9871 70.0015 71.8196C68.8697 71.6638 67.7194 71.4086 66.5917 71.6294C66.1227 71.7212 65.9436 72.3719 65.7885 72.7459C65.5815 73.2872 65.3639 73.8482 65.156 74.4294ZM75.147 32.9664C75.147 32.9664 72.1027 32.4845 71.2852 37.8325C70.3769 43.778 67.9513 42.7999 64.0993 47.6274C61.8482 50.4483 64.2173 55.4302 69.0316 55.3314C73.8459 55.235 78.1937 53.8499 80.9631 54.4424C83.7322 55.0351 83.8846 47.9767 81.1519 45.7989C78.4195 43.6213 84.2454 37.3676 80.6954 34.5828C77.1455 31.7979 75.147 32.9664 75.147 32.9664Z" fill="#2F5C06"/>
<path d="M56.95 56.5485C56.6723 55.9807 56.6892 55.3211 56.7894 54.7057C57.2233 52.0639 59.0836 49.8564 61.216 48.2387C63.3555 46.6169 65.8044 45.4588 68.0551 44.0057C68.6393 43.6269 69.2249 43.2194 69.8957 43.0149C70.5663 42.8102 71.346 42.8322 71.8997 43.2627C72.2908 43.5646 72.5168 44.0315 72.6482 44.4987C72.9366 45.5214 72.8261 46.6042 72.6502 47.6414C72.4304 48.95 72.1077 50.2447 71.5779 51.4474C71.1533 52.4175 70.4618 53.4157 69.4229 53.6057C69.1222 54.7649 68.5033 55.8515 67.635 56.6827C66.6421 57.636 65.383 58.2591 64.0765 58.6946C62.8724 59.0965 61.5559 59.3589 60.3448 58.9838C59.6261 58.7653 58.9931 58.3448 58.374 57.916C57.8217 57.5506 57.2484 57.1508 56.95 56.5485ZM67.83 54.7868L68.5407 53.6639C68.3892 53.6796 68.2462 53.7088 68.1017 53.7673C67.7118 53.9353 67.4767 54.5468 67.83 54.7868Z" fill="#2F5C06"/>
<path d="M80.9985 37.6694C81.0352 37.8679 81.042 38.076 81.0283 38.3133C80.9478 39.7 80.6483 41.0654 80.1409 42.3593C79.8307 43.1268 79.451 43.8834 78.9139 44.519C78.6911 44.7828 78.4385 45.0265 78.1089 45.1206C77.7691 45.2144 77.3411 45.2278 77.0042 45.1435C76.7069 46.3668 76.8309 48.6756 77.8921 49.5431C78.2164 49.8053 78.6018 49.9697 78.9877 50.114C79.7396 50.4026 80.5222 50.6225 81.3055 50.7927C82.198 50.9844 83.1708 51.1277 83.7977 51.7807C83.876 51.8612 83.9539 51.9713 83.9225 52.0797C83.9015 52.1486 83.851 52.1973 83.7908 52.2361C83.2972 52.6346 82.6868 52.8531 82.0768 53.0616C81.0067 53.4218 79.9077 53.7219 78.7904 53.9229C77.6231 54.1331 76.4177 54.2335 75.2355 54.1068C74.3219 54.0039 73.4199 53.7724 72.5905 53.3638C71.7213 52.9349 70.8314 52.5847 69.9321 52.1751C69.1714 51.827 68.4213 51.4296 67.5977 51.2884C67.9869 50.5517 68.7992 50.1383 69.608 49.9425C70.4169 49.7568 71.2628 49.7398 72.081 49.5839C72.3505 49.5286 72.6202 49.4633 72.8516 49.2985C73.4853 48.8427 73.3117 47.8301 73.3217 47.1671L73.3538 45.0687C73.2598 44.0673 72.8447 43.2293 72.4805 42.3129C71.925 40.9084 71.81 39.3127 72.2997 37.8745C72.7889 36.4463 73.9023 35.2057 75.3328 34.7025C76.7632 34.1995 78.4802 34.4829 79.5785 35.5292C80.2746 36.2031 80.8425 36.8058 80.9985 37.6694Z" fill="#D9ABA1"/>
<path d="M76.6006 33.2072C78.0262 33.049 79.3252 33.7437 80.2885 34.8206C81.099 35.7234 81.5752 36.915 81.5511 38.1123C81.5477 38.2834 81.5283 38.4697 81.4315 38.6234C81.1739 38.9915 80.614 38.856 80.1951 38.6921C79.5127 38.4296 79.0045 38.0461 78.3857 37.7229C77.767 37.3994 77.0156 37.4466 76.4619 37C75.9391 36.5696 74.144 35.6629 74.0955 34.9618C74.0344 34.105 75.6118 33.4053 76.2712 33.263C76.3655 33.2337 76.4753 33.2204 76.6006 33.2072Z" fill="#2F5C06"/>
<path d="M72.4915 35.1464C71.2861 35.9202 70.7201 37.2755 70.6575 38.7159C70.6026 39.9252 70.99 41.1483 71.769 42.0611C71.8802 42.1917 72.0137 42.3238 72.1861 42.3821C72.6195 42.5054 72.9676 42.0482 73.1881 41.6579C73.5505 41.0252 73.7008 40.4087 73.975 39.7688C74.2493 39.1292 74.8616 38.6933 75.0073 37.999C75.1392 37.3367 75.9549 35.5052 75.5474 34.9313C75.0506 34.2288 73.3837 34.6783 72.7822 34.9825C72.6906 35.0192 72.597 35.0777 72.4915 35.1464Z" fill="#2F5C06"/>
<path d="M83.2159 51.4748C83.4063 51.3887 83.6341 51.4514 83.761 51.6217C85.1832 53.6036 85.7324 56.087 86.2132 58.4804C86.7587 61.2015 87.2444 63.9317 87.7099 66.6615C87.7377 66.8004 87.7555 66.9493 87.6938 67.0769C87.632 67.2048 87.4917 67.2719 87.3614 67.3294C86.5396 67.7229 85.708 68.1065 84.8862 68.4999C83.9993 66.492 83.36 64.3846 82.9822 62.2238C82.4544 63.5523 81.5016 64.7062 80.2862 65.4601C81.1918 66.751 82.3066 69.3323 83.3935 70.4674C83.56 70.6481 84.5891 70.3665 84.819 70.2908C84.962 70.6991 84.2921 70.2632 84.2958 70.6791C83.6776 70.7687 82.8872 70.4003 82.2517 70.3214C81.4852 70.2322 80.7112 70.2271 79.9436 70.3063C78.6681 70.4454 77.4283 70.8426 76.2948 71.4394C75.7314 71.7377 75.1908 72.077 74.6774 72.4544C74.2346 72.7844 73.1383 73.5598 73.1383 73.5598C73.0579 73.6181 72.6812 73.5331 72.5919 73.512C72.3318 73.4681 72.0701 73.4344 71.8074 73.4109C71.1514 73.3615 70.4863 73.2722 69.8414 73.1536C68.5415 72.9161 67.2637 72.5503 66.0376 72.0466C65.9196 71.9557 66.3407 71.0907 66.3633 70.9228C66.341 71.0808 63.9263 70.8861 63.688 70.8428C62.7359 70.6501 61.7724 70.5465 60.8203 70.3439C61.2467 66.5286 62.4173 62.8435 63.5675 59.1876C64.0174 57.7489 64.4771 56.3103 65.1146 54.9537C65.7934 53.5084 66.6696 52.1555 67.7227 50.9535C67.753 50.9242 67.8031 50.9052 67.8427 50.9158C68.3481 51.0423 71.4304 51.8313 72.9638 52.3991C73.7453 52.6981 74.5371 52.9674 75.3389 53.2369C75.6557 53.3407 75.9826 53.4448 76.3108 53.4398C76.5299 53.4332 76.7495 53.387 76.9591 53.3407C79.0954 52.8681 81.2324 52.3558 83.2159 51.4748Z" fill="#39900E"/>
<path d="M69.3093 59.0764C69.2214 59.6197 69.1036 60.1723 68.9859 60.7152C68.6994 61.9468 68.3319 63.1583 67.8857 64.3419C67.6579 64.9326 67.4201 65.5131 67.1527 66.0933C67.019 66.3783 66.8853 66.6634 66.7416 66.9483C66.6698 67.0859 66.5981 67.2335 66.5263 67.3708C66.4648 67.4887 66.3935 67.5966 66.332 67.7045C66.76 67.6913 68.8727 67.8126 69.3098 67.8489" stroke="white" stroke-width="1.376" stroke-miterlimit="10" stroke-linecap="round"/>
<path d="M69.3808 68.2754C69.3369 68.5519 69.2829 68.8285 69.2189 69.1046L69.0273 69.9335C68.964 70.1701 68.8201 70.465 68.8164 70.7123C68.8171 70.6629 70.5106 70.5201 70.6701 70.5029C72.4337 70.3315 74.2063 70.2295 75.9691 70.1175C77.1144 70.0457 78.2382 70.0727 79.3823 70.0801C79.7206 70.0851 80.119 70.0516 80.3023 69.7771C80.4552 69.5418 80.3303 69.2428 80.4529 69.027C80.5322 69.0479 81.454 69.2798 81.4444 69.2598C81.4811 69.4681 81.554 69.9049 81.7713 70.0072C81.8503 70.0382 81.9298 70.0493 82.0093 70.0504C82.1286 70.0523 82.2485 70.0343 82.368 70.0162C82.3865 70.0162 82.4043 70.0094 82.4182 69.9972C82.4382 69.9777 82.4188 69.9478 82.3995 69.9178C82.1281 69.5189 81.986 69.0468 81.9922 68.5651C81.7066 68.3727 81.4214 68.1505 81.1765 67.9091C80.9807 67.7083 80.8353 67.4485 80.6189 67.2769C80.393 67.0854 80.1725 67.201 79.9226 67.2665C79.6336 67.3308 79.3471 67.4057 79.0637 67.4912C78.5138 67.6609 77.9635 67.8706 77.5004 68.2101C77.3396 68.3264 77.1884 68.4529 76.9984 68.5093C76.8185 68.566 76.6196 68.5631 76.4306 68.5601C75.2671 68.5327 74.1038 68.4756 72.9515 68.3493C71.7695 68.2224 70.9634 68.2401 69.4148 68.0086C69.4145 68.0186 69.4132 68.1077 69.3808 68.2754Z" fill="#D9ABA1"/>
<path d="M82.1953 58.9663C82.4734 60.1631 82.6741 61.3715 82.8099 62.6048" stroke="white" stroke-width="1.376" stroke-miterlimit="10" stroke-linecap="round"/>
<path d="M105.656 56.9924L102.241 72.1485L76.3086 71.7564C76.3223 70.8656 77.0596 70.1441 77.9645 70.1577L84.1617 70.2513L87.2499 56.3081C87.3465 55.8541 87.7592 55.5338 88.2168 55.5406L104.709 55.79C105.335 55.8092 105.794 56.3807 105.656 56.9924Z" fill="#799513"/>
<path d="M71.7831 94.0243C71.9031 93.333 72.2423 92.6253 72.56 92.0063C73.8722 89.4717 76.2177 87.6853 78.7437 86.4563C79.0043 86.3315 79.2649 86.2068 79.535 86.1118C79.5147 86.1413 79.4943 86.1705 79.4738 86.21V86.2197H79.4637C79.4938 86.2002 79.5141 86.1807 79.5441 86.1615C80.565 87.0779 81.654 88.0845 82.5836 89.0984C81.9693 89.5941 81.0775 89.9964 80.6347 90.3265C79.5883 91.0928 78.5809 91.9093 77.4955 92.6255C76.0379 93.6034 74.485 94.3126 72.7491 94.6229C72.0805 94.7415 71.7304 94.865 71.7384 94.3502C71.7493 94.2711 71.761 94.1626 71.7831 94.0243Z" fill="#D9ABA1"/>
<path d="M73.4739 92.0302C74.15 90.7631 75.1993 89.7989 76.3466 88.9448C77.1518 88.3432 78.0058 87.8017 78.8201 87.2495C79.0513 87.0947 79.5055 86.6758 79.8966 86.4739C80.7111 87.209 81.545 87.9837 82.2987 88.7872C79.8084 90.2941 77.5894 92.2607 74.857 93.3283C74.6069 93.4235 74.3465 93.5184 74.078 93.5243C73.8092 93.5302 73.5224 93.4169 73.3666 93.1968C73.1231 92.8564 73.2794 92.3935 73.4739 92.0302Z" fill="#D9ABA1"/>
<path d="M115.569 68.7765C118.337 69.429 121.264 67.093 121.264 67.093C121.264 67.093 119.702 63.7003 116.933 63.0497C114.165 62.3971 111.238 64.7311 111.238 64.7311C111.238 64.7311 112.801 68.1239 115.569 68.7765Z" fill="url(#paint4_linear_3771_13601)"/>
<path d="M117.27 31.9926C113.06 34.878 106.629 32.8611 106.629 32.8611C106.629 32.8611 107.027 26.1661 111.24 23.2833C115.45 20.3979 121.878 22.412 121.878 22.412C121.878 22.412 121.48 29.1069 117.27 31.9926Z" fill="url(#paint5_linear_3771_13601)"/>
<path d="M32.2301 42.253C34.7448 44.7998 39.4473 44.2629 39.4473 44.2629C39.4473 44.2629 40.0695 39.5965 37.5524 37.0512C35.0377 34.5042 30.3377 35.0396 30.3377 35.0396C30.3377 35.0396 29.7155 39.7062 32.2301 42.253Z" fill="url(#paint6_linear_3771_13601)"/>
<path d="M40.7386 94.7753C41.9318 94.7753 42.8991 95.7379 42.8991 96.9253C42.8991 98.1126 41.9318 99.0752 40.7386 99.0752C39.5454 99.0752 38.5781 98.1126 38.5781 96.9253C38.5781 95.7379 39.5454 94.7753 40.7386 94.7753Z" fill="#39900E"/>
<path d="M121.22 95.6153C122.541 95.6153 123.612 96.6278 123.612 97.8767C123.612 99.1257 122.541 100.138 121.22 100.138C119.899 100.138 118.828 99.1257 118.828 97.8767C118.828 96.6278 119.899 95.6153 121.22 95.6153Z" fill="#39900E"/>
<path d="M19.6663 46.7101C20.4636 46.7101 21.11 46.0669 21.11 45.2735C21.11 44.4801 20.4636 43.8369 19.6663 43.8369C18.869 43.8369 18.2227 44.4801 18.2227 45.2735C18.2227 46.0669 18.869 46.7101 19.6663 46.7101Z" fill="#39900E"/>
<path d="M28.9303 105.875C30.1193 105.875 31.0833 104.969 31.0833 103.852C31.0833 102.734 30.1193 101.828 28.9303 101.828C27.7413 101.828 26.7773 102.734 26.7773 103.852C26.7773 104.969 27.7413 105.875 28.9303 105.875Z" fill="#E1E4E5"/>
<path d="M130.681 61.7885C131.636 61.7885 132.41 61.0185 132.41 60.0686C132.41 59.1187 131.636 58.3486 130.681 58.3486C129.727 58.3486 128.953 59.1187 128.953 60.0686C128.953 61.0185 129.727 61.7885 130.681 61.7885Z" fill="#E1E4E5"/>
<path d="M50.8096 79.5775C51.3797 79.5775 51.8419 79.1175 51.8419 78.5502C51.8419 77.9829 51.3797 77.5229 50.8096 77.5229C50.2395 77.5229 49.7773 77.9829 49.7773 78.5502C49.7773 79.1175 50.2395 79.5775 50.8096 79.5775Z" fill="#E1E4E5"/>
<path d="M54.6739 23.5626C55.4883 23.5626 56.1485 22.9056 56.1485 22.0951C56.1485 21.2847 55.4883 20.6277 54.6739 20.6277C53.8594 20.6277 53.1992 21.2847 53.1992 22.0951C53.1992 22.9056 53.8594 23.5626 54.6739 23.5626Z" fill="#E1E4E5"/>
<path d="M124.23 79.4925C124.024 80.2576 124.48 81.0439 125.249 81.2489C126.017 81.4539 126.808 80.9999 127.014 80.2349C127.22 79.4698 126.763 78.6834 125.995 78.4784C125.226 78.2734 124.436 78.7274 124.23 79.4925Z" fill="#E1E4E5"/>
<path d="M123.183 48.4698C124.241 48.4698 125.1 47.6157 125.1 46.5622C125.1 45.5086 124.241 44.6545 123.183 44.6545C122.124 44.6545 121.266 45.5086 121.266 46.5622C121.266 47.6157 122.124 48.4698 123.183 48.4698Z" fill="#E1E4E5"/>
<path d="M31.2012 61.3398C32.0156 61.3398 32.6758 60.8142 32.6758 60.1658C32.6758 59.5175 32.0156 58.9919 31.2012 58.9919C30.3868 58.9919 29.7266 59.5175 29.7266 60.1658C29.7266 60.8142 30.3868 61.3398 31.2012 61.3398Z" fill="#E1E4E5"/>
<path d="M43.1213 66.3606C42.6925 67.9528 43.642 69.5893 45.242 70.0159C46.8419 70.4425 48.4865 69.4977 48.9152 67.9055C49.3439 66.3134 48.3944 64.6769 46.7945 64.2503C45.1945 63.8236 43.55 64.7685 43.1213 66.3606Z" fill="#E1E4E5"/>
<path d="M44.9872 51.4124H44.9487C44.7203 54.6334 42.3131 54.683 42.3131 54.683C42.3131 54.683 44.9676 54.7347 44.9676 58.4563C44.9676 54.7347 47.6219 54.683 47.6219 54.683C47.6219 54.683 45.2157 54.6334 44.9872 51.4124ZM91.6122 24.9126H91.5746C91.3514 28.1895 89.0003 28.2401 89.0003 28.2401C89.0003 28.2401 91.5928 28.2924 91.5928 32.0789C91.5928 28.2924 94.1854 28.2401 94.1854 28.2401C94.1854 28.2401 91.8354 28.1895 91.6122 24.9126ZM128.929 37.8287H128.891C128.668 41.1059 126.317 41.1562 126.317 41.1562C126.317 41.1562 128.91 41.2088 128.91 44.9953C128.91 41.2088 131.502 41.1562 131.502 41.1562C131.502 41.1562 129.152 41.1059 128.929 37.8287ZM37.4361 78.5796H37.3983C37.1753 81.8567 34.8242 81.907 34.8242 81.907C34.8242 81.907 37.4168 81.9596 37.4168 85.7461C37.4168 81.9596 40.0094 81.907 40.0094 81.907C40.0094 81.907 37.6591 81.8567 37.4361 78.5796ZM102.729 46.5822H102.701C102.534 49.0306 100.778 49.0682 100.778 49.0682C100.778 49.0682 102.715 49.1075 102.715 51.9365C102.715 49.1075 104.652 49.0682 104.652 49.0682C104.652 49.0682 102.896 49.0306 102.729 46.5822Z" fill="#E1E4E5"/>
<path d="M116.191 111.067L147.055 36.04L177.919 111.067M171.769 96.1067H122.341" stroke="#39900E" stroke-width="22" stroke-linecap="round" stroke-linejoin="round"/>
</g>
<defs>
<linearGradient id="paint0_linear_3771_13601" x1="96.5433" y1="120.782" x2="96.5007" y2="100.077" gradientUnits="userSpaceOnUse">
<stop stop-color="white"/>
<stop offset="1" stop-color="#EEEEEE"/>
</linearGradient>
<linearGradient id="paint1_linear_3771_13601" x1="90.6815" y1="110.375" x2="90.6346" y2="94.0294" gradientUnits="userSpaceOnUse">
<stop stop-color="white"/>
<stop offset="1" stop-color="#EEEEEE"/>
</linearGradient>
<linearGradient id="paint2_linear_3771_13601" x1="84.9176" y1="103.377" x2="84.8678" y2="86.4437" gradientUnits="userSpaceOnUse">
<stop stop-color="white"/>
<stop offset="1" stop-color="#EEEEEE"/>
</linearGradient>
<linearGradient id="paint3_linear_3771_13601" x1="93.3351" y1="94.7613" x2="93.3133" y2="81.9743" gradientUnits="userSpaceOnUse">
<stop stop-color="white"/>
<stop offset="1" stop-color="#EEEEEE"/>
</linearGradient>
<linearGradient id="paint4_linear_3771_13601" x1="125.992" y1="70.3989" x2="101.805" y2="58.9157" gradientUnits="userSpaceOnUse">
<stop stop-color="white"/>
<stop offset="1" stop-color="#EEEEEE"/>
</linearGradient>
<linearGradient id="paint5_linear_3771_13601" x1="100.871" y1="41.4604" x2="133.84" y2="6.52559" gradientUnits="userSpaceOnUse">
<stop stop-color="white"/>
<stop offset="1" stop-color="#EEEEEE"/>
</linearGradient>
<linearGradient id="paint6_linear_3771_13601" x1="42.2633" y1="50.9527" x2="24.2098" y2="22.5137" gradientUnits="userSpaceOnUse">
<stop stop-color="white"/>
<stop offset="1" stop-color="#EEEEEE"/>
</linearGradient>
<clipPath id="clip0_3771_13601">
<rect width="205" height="136" fill="white"/>
</clipPath>
</defs>
</svg>
