<svg width="290" height="194" viewBox="0 0 290 194" fill="none" xmlns="http://www.w3.org/2000/svg">
<g clip-path="url(#clip0_3682_4800)">
<path fill-rule="evenodd" clip-rule="evenodd" d="M79.7444 51.0052C65.989 51.0052 54.7361 62.2869 54.7361 76.0781C54.7361 89.8692 65.989 101.151 79.7444 101.151C82.5039 101.151 84.764 103.417 84.764 106.184C84.764 108.95 82.5039 111.216 79.7444 111.216H66.6586C59.948 111.216 54.457 116.721 54.457 123.449C54.457 130.177 59.948 135.682 66.6586 135.682C72.4622 135.682 77.2111 140.443 77.2111 146.262C77.2111 156.878 85.8747 165.563 96.4632 165.563H209.48C223.236 165.563 234.488 154.282 234.488 140.491C234.488 126.699 223.236 115.418 209.48 115.418H207.061C204.301 115.418 202.041 113.155 202.041 110.385C202.041 107.619 204.298 105.353 207.061 105.353H223.344C230.055 105.353 235.546 99.8476 235.546 93.1197C235.546 86.4005 230.069 80.9009 223.369 80.8867H210.267C204.463 80.8867 199.714 76.1256 199.714 70.3072C199.714 59.6912 191.051 51.0052 180.462 51.0052H79.7444Z" fill="url(#paint0_linear_3682_4800)"/>
<path d="M191.707 29.1779H96.2695C94.0928 29.1779 92.3281 30.9486 92.3281 33.1329V64.9822C92.3281 67.1665 94.0928 68.9372 96.2695 68.9372H191.707C193.883 68.9372 195.648 67.1665 195.648 64.9822V33.1329C195.648 30.9486 193.883 29.1779 191.707 29.1779Z" fill="#9747FF"/>
<path d="M174.33 60.885C177.516 60.885 180.098 58.2937 180.098 55.0973C180.098 51.9009 177.516 49.3096 174.33 49.3096C171.145 49.3096 168.562 51.9009 168.562 55.0973C168.562 58.2937 171.145 60.885 174.33 60.885Z" fill="white"/>
<path fill-rule="evenodd" clip-rule="evenodd" d="M179.508 60.2228C180.853 58.8585 181.606 57.0162 181.604 55.097C181.606 53.1779 180.853 51.3355 179.508 49.9712C180.335 49.5351 181.255 49.308 182.189 49.3093C185.375 49.3093 187.957 51.9005 187.957 55.097C187.957 58.2935 185.375 60.8847 182.189 60.8847C181.221 60.8847 180.309 60.6457 179.508 60.2228Z" fill="white"/>
<path d="M150.004 38.2371H105.366C102.873 38.2371 100.852 40.265 100.852 42.7666C100.852 45.2683 102.873 47.2962 105.366 47.2962H150.004C152.497 47.2962 154.518 45.2683 154.518 42.7666C154.518 40.265 152.497 38.2371 150.004 38.2371Z" fill="white"/>
<path d="M133.452 51.3224H105.366C102.873 51.3224 100.852 53.3503 100.852 55.852C100.852 58.3536 102.873 60.3815 105.366 60.3815H133.452C135.945 60.3815 137.966 58.3536 137.966 55.852C137.966 53.3503 135.945 51.3224 133.452 51.3224Z" fill="white"/>
<path d="M191.707 130.633H96.2695C94.0928 130.633 92.3281 132.404 92.3281 134.588V166.437C92.3281 168.621 94.0928 170.392 96.2695 170.392H191.707C193.883 170.392 195.648 168.621 195.648 166.437V134.588C195.648 132.404 193.883 130.633 191.707 130.633Z" fill="#9747FF"/>
<path d="M174.33 162.339C177.516 162.339 180.098 159.748 180.098 156.552C180.098 153.355 177.516 150.764 174.33 150.764C171.145 150.764 168.562 153.355 168.562 156.552C168.562 159.748 171.145 162.339 174.33 162.339Z" fill="white"/>
<path fill-rule="evenodd" clip-rule="evenodd" d="M179.508 161.678C180.853 160.313 181.606 158.471 181.604 156.552C181.606 154.633 180.853 152.79 179.508 151.426C180.335 150.99 181.255 150.763 182.189 150.764C185.375 150.764 187.957 153.355 187.957 156.552C187.957 159.748 185.375 162.339 182.189 162.339C181.221 162.339 180.309 162.1 179.508 161.678Z" fill="white"/>
<path d="M150.004 139.692H105.366C102.873 139.692 100.852 141.72 100.852 144.221C100.852 146.723 102.873 148.751 105.366 148.751H150.004C152.497 148.751 154.518 146.723 154.518 144.221C154.518 141.72 152.497 139.692 150.004 139.692Z" fill="white"/>
<path d="M133.452 152.777H105.366C102.873 152.777 100.852 154.805 100.852 157.307C100.852 159.808 102.873 161.836 105.366 161.836H133.452C135.945 161.836 137.966 159.808 137.966 157.307C137.966 154.805 135.945 152.777 133.452 152.777Z" fill="white"/>
<path d="M218.839 79.9054H123.402C121.226 79.9054 119.461 81.6761 119.461 83.8604V115.71C119.461 117.894 121.226 119.665 123.402 119.665H218.839C221.016 119.665 222.781 117.894 222.781 115.71V83.8604C222.781 81.6761 221.016 79.9054 218.839 79.9054Z" fill="#9747FF"/>
<path d="M201.467 111.612C204.652 111.612 207.235 109.021 207.235 105.825C207.235 102.628 204.652 100.037 201.467 100.037C198.282 100.037 195.699 102.628 195.699 105.825C195.699 109.021 198.282 111.612 201.467 111.612Z" fill="white"/>
<path fill-rule="evenodd" clip-rule="evenodd" d="M206.641 110.95C207.986 109.586 208.739 107.743 208.737 105.824C208.739 103.905 207.986 102.063 206.641 100.698C207.467 100.262 208.388 100.035 209.322 100.036C212.507 100.036 215.09 102.628 215.09 105.824C215.09 109.021 212.507 111.612 209.322 111.612C208.354 111.612 207.442 111.373 206.641 110.95Z" fill="white"/>
<path d="M177.14 88.9642H132.502C130.009 88.9642 127.988 90.9921 127.988 93.4937C127.988 95.9954 130.009 98.0233 132.502 98.0233H177.14C179.633 98.0233 181.654 95.9954 181.654 93.4937C181.654 90.9921 179.633 88.9642 177.14 88.9642Z" fill="white"/>
<path d="M160.589 102.05H132.502C130.009 102.05 127.988 104.078 127.988 106.579C127.988 109.081 130.009 111.109 132.502 111.109H160.589C163.082 111.109 165.103 109.081 165.103 106.579C165.103 104.078 163.082 102.05 160.589 102.05Z" fill="white"/>
<path fill-rule="evenodd" clip-rule="evenodd" d="M102.749 87.5994H101.585C101.304 87.5994 101.078 87.3698 101.078 87.0902V85.9229C101.078 85.6407 101.307 85.4134 101.585 85.4134H102.749C103.027 85.4134 103.257 85.6429 103.257 85.9229V87.0902C103.257 87.1571 103.244 87.2234 103.218 87.2853C103.193 87.3471 103.155 87.4033 103.108 87.4507C103.061 87.498 103.005 87.5355 102.943 87.561C102.881 87.5865 102.815 87.5996 102.749 87.5994ZM98.7161 87.5994H97.5529C97.2741 87.5994 97.045 87.3698 97.045 87.0902V85.9229C97.045 85.6407 97.2741 85.4134 97.5529 85.4134H98.7161C98.9948 85.4134 99.2239 85.6429 99.2239 85.9229V87.0902C99.2239 87.3698 98.9948 87.5994 98.7161 87.5994ZM94.6806 87.5994H93.5177C93.2386 87.5994 93.0099 87.3698 93.0099 87.0902V85.9229C93.0099 85.6407 93.2386 85.4134 93.5177 85.4134H94.6806C94.9596 85.4134 95.1884 85.6429 95.1884 85.9229V87.0902C95.1885 87.1571 95.1755 87.2234 95.15 87.2853C95.1245 87.3471 95.0871 87.4033 95.0399 87.4507C94.9927 87.498 94.9367 87.5355 94.875 87.561C94.8134 87.5865 94.7473 87.5996 94.6806 87.5994ZM90.6476 87.5994H89.4844C89.2057 87.5994 88.9769 87.3698 88.9769 87.0902V85.9229C88.9769 85.6407 89.2057 85.4134 89.4844 85.4134H90.6476C90.9289 85.4134 91.1577 85.6429 91.1577 85.9229V87.0902C91.1563 87.2252 91.102 87.3543 91.0066 87.4496C90.9112 87.5448 90.7822 87.5986 90.6476 87.5994ZM86.6147 87.5994H85.4515C85.1702 87.5994 84.9414 87.3698 84.9414 87.0902V85.9229C84.9414 85.6407 85.1702 85.4134 85.4515 85.4134H86.6147C86.8934 85.4134 87.1222 85.6429 87.1222 85.9229V87.0902C87.1222 87.3698 86.8934 87.5994 86.6147 87.5994ZM98.5679 83.1866H97.4046C97.1259 83.1866 96.8971 82.957 96.8971 82.6773V81.5075C96.8971 81.2278 97.1259 80.9982 97.4046 80.9982H98.5679C98.8492 80.9982 99.0757 81.2278 99.0757 81.5075V82.6747C99.0761 82.7418 99.0632 82.8084 99.0379 82.8705C99.0125 82.9326 98.9751 82.9891 98.9279 83.0367C98.8807 83.0843 98.8246 83.122 98.7628 83.1477C98.701 83.1734 98.6348 83.1866 98.5679 83.1866ZM94.5353 83.1866H93.372C93.093 83.1866 92.8642 82.957 92.8642 82.6773V81.5075C92.8642 81.2278 93.093 80.9982 93.372 80.9982H94.5353C94.814 80.9982 95.0427 81.2278 95.0427 81.5075V82.6747C95.0432 82.7418 95.0304 82.8084 95.005 82.8705C94.9797 82.9326 94.9424 82.9891 94.8952 83.0367C94.848 83.0843 94.7919 83.122 94.7302 83.1477C94.6684 83.1734 94.6021 83.1866 94.5353 83.1866ZM90.5023 83.1866H89.3391C89.0578 83.1866 88.829 82.957 88.829 82.6773V81.5075C88.829 81.2278 89.0578 80.9982 89.3391 80.9982H90.5023C90.781 80.9982 91.0098 81.2278 91.0098 81.5075V82.6747C91.0098 82.957 90.781 83.1866 90.5023 83.1866ZM94.6806 92.3395H93.5177C93.2386 92.3395 93.0099 92.1099 93.0099 91.8302V90.663C93.0099 90.3807 93.2386 90.1534 93.5177 90.1534H94.6806C94.9596 90.1534 95.1884 90.383 95.1884 90.663V91.8302C95.1885 91.8972 95.1755 91.9635 95.15 92.0253C95.1245 92.0872 95.0871 92.1434 95.0399 92.1907C94.9927 92.238 94.9367 92.2755 94.875 92.3011C94.8134 92.3266 94.7473 92.3396 94.6806 92.3395ZM90.6476 92.3395H89.4844C89.2057 92.3395 88.9769 92.1099 88.9769 91.8302V90.663C88.9769 90.3807 89.2057 90.1534 89.4844 90.1534H90.6476C90.9289 90.1534 91.1577 90.383 91.1577 90.663V91.8302C91.1563 91.9653 91.102 92.0944 91.0066 92.1896C90.9112 92.2849 90.7822 92.3387 90.6476 92.3395Z" fill="#E1E4E5"/>
<path d="M217.473 68.9609C223.106 68.9609 227.673 64.3786 227.673 58.7261C227.673 53.0735 223.106 48.4913 217.473 48.4913C211.84 48.4913 207.273 53.0735 207.273 58.7261C207.273 64.3786 211.84 68.9609 217.473 68.9609Z" fill="url(#paint1_linear_3682_4800)"/>
</g>
<defs>
<linearGradient id="paint0_linear_3682_4800" x1="148.863" y1="229.792" x2="146.628" y2="-73.6394" gradientUnits="userSpaceOnUse">
<stop stop-color="white"/>
<stop offset="1" stop-color="#EEEEEE"/>
</linearGradient>
<linearGradient id="paint1_linear_3682_4800" x1="217.908" y1="80.4376" x2="217.275" y2="26.224" gradientUnits="userSpaceOnUse">
<stop stop-color="white"/>
<stop offset="1" stop-color="#EEEEEE"/>
</linearGradient>
<clipPath id="clip0_3682_4800">
<rect width="290" height="194" fill="white"/>
</clipPath>
</defs>
</svg>
