<svg width="196" height="132" viewBox="0 0 196 132" fill="none" xmlns="http://www.w3.org/2000/svg">
<g clip-path="url(#clip0_3771_13645)">
<path d="M155.151 87.9035H142.347C139.209 87.9035 136.581 85.7354 136.581 82.9889C136.581 81.6157 137.259 80.387 138.277 79.5195C139.294 78.6523 140.736 78.0741 142.347 78.0741H144.212C145.824 78.0741 147.265 77.4957 148.283 76.6285C149.3 75.7612 149.979 74.5325 149.979 73.1593C149.979 70.485 147.435 68.2445 144.212 68.2445H105.104C104.082 68.2445 103.425 66.9692 103.425 65.9316C103.425 63.3297 100.966 61.2335 97.9134 61.2335H83.3597C82.9916 61.2335 82.6386 61.0851 82.3783 60.8208C82.118 60.5565 81.9717 60.198 81.9717 59.8242C81.9717 59.4504 82.118 59.092 82.3783 58.8277C82.6386 58.5634 82.9916 58.4149 83.3597 58.4149H139.125C141.584 58.4149 143.873 57.5477 145.484 56.1742C147.096 54.801 148.113 52.8496 148.113 50.7536C148.113 46.4894 144.043 43.0923 139.125 43.0923H110.323C105.804 43.0923 101.33 39.5508 96.8112 39.5508H80.7309C78.3721 39.5508 76.46 37.6093 76.46 35.2141C76.46 32.8192 78.3721 30.8775 80.7309 30.8775H116.738C118.434 30.8775 120.045 30.2993 121.148 29.3597C122.25 28.4203 122.928 27.1192 122.928 25.6015C122.928 22.7104 120.13 20.3252 116.738 20.3252H33.7225C32.0266 20.3252 30.4155 20.9036 29.3131 21.8432C28.2107 22.7826 27.5323 24.0837 27.5323 25.6015C27.5323 28.4925 30.3306 30.8775 33.7225 30.8775H35.8423C38.6406 30.8775 41.015 32.8291 41.015 35.2865C41.015 36.5152 40.4214 37.5994 39.4886 38.3942C38.5559 39.1893 37.284 39.6953 35.8423 39.6953H25.5821C23.8013 39.6953 22.1054 40.3459 20.9181 41.3576C19.731 42.3696 18.9679 43.7429 18.9679 45.3328C18.9679 48.4408 21.9358 50.8982 25.4972 50.8982H35.9273C39.319 50.8982 42.1174 53.2832 42.1174 56.1742C42.1174 57.6198 41.4391 58.9209 40.3366 59.8603C39.2342 60.7999 37.7078 61.3783 36.012 61.3783H26.6843C25.1581 61.3783 23.8013 61.8841 22.7836 62.7515C21.7661 63.6188 21.1725 64.7751 21.1725 66.0762C21.1725 68.6781 23.6316 70.7741 26.6843 70.7741H34.2312C38.5559 70.7741 42.0325 73.7375 42.0325 77.4236C42.0325 79.2304 41.1847 80.9651 39.743 82.1214C38.3015 83.3501 36.3513 84.0731 34.2312 84.0731H23.7166C21.5965 84.0731 19.6463 84.7958 18.2895 86.0245C16.848 87.1808 16 88.8431 16 90.6502C16 94.2639 19.4766 97.2273 23.7166 97.2273H56.1843C59.7699 97.2273 63.2923 99.2511 66.8779 99.2511H72.7912C75.0514 99.2511 76.884 101.112 76.884 103.407C76.884 105.702 75.0514 107.563 72.7912 107.563H58.3982C56.5327 107.563 54.9216 108.213 53.7345 109.225C52.5473 110.237 51.7842 111.682 51.7842 113.2C51.7842 116.308 54.7521 118.838 58.3982 118.838H146.587C148.452 118.838 150.063 118.187 151.251 117.176C152.438 116.164 153.201 114.718 153.201 113.2C153.201 110.092 150.233 107.563 146.587 107.563H143.958C141.245 107.563 139.125 105.684 139.125 103.443C139.125 102.287 139.633 101.275 140.566 100.552C141.414 99.8292 142.686 99.3232 144.043 99.3232H155.151C157.017 99.3232 158.628 98.6727 159.815 97.6609C161.002 96.6489 161.765 95.2035 161.765 93.6857C161.765 90.4333 158.797 87.9035 155.151 87.9035Z" fill="url(#paint0_linear_3771_13645)"/>
<path d="M184.374 77.6944C181.855 78.9631 178.512 77.3316 178.512 77.3316C178.512 77.3316 179.255 73.6437 181.775 72.3767C184.294 71.108 187.636 72.7378 187.636 72.7378C187.636 72.7378 186.893 76.4254 184.374 77.6944Z" fill="url(#paint1_linear_3771_13645)"/>
<path d="M13.72 79.9405C17.3981 82.179 22.6755 80.1096 22.6755 80.1096C22.6755 80.1096 21.9854 74.4119 18.3049 72.176C14.6265 69.9375 9.35156 72.0042 9.35156 72.0042C9.35156 72.0042 10.0416 77.702 13.72 79.9405Z" fill="url(#paint2_linear_3771_13645)"/>
<path d="M181.161 41.8751C180.216 41.8751 179.45 42.6527 179.45 43.612C179.45 44.5712 180.216 45.3489 181.161 45.3489C182.105 45.3489 182.871 44.5712 182.871 43.612C182.871 42.6527 182.105 41.8751 181.161 41.8751Z" fill="#39900E"/>
<path d="M145.291 100.666C143.514 100.666 142.073 102.128 142.073 103.932C142.073 105.737 143.514 107.199 145.291 107.199C147.067 107.199 148.508 105.737 148.508 103.932C148.508 102.128 147.067 100.666 145.291 100.666Z" fill="#39900E"/>
<path d="M35.0399 115.895C33.6294 115.895 32.4861 114.734 32.4861 113.301C32.4861 111.869 33.6294 110.708 35.0399 110.708C36.4504 110.708 37.5938 111.869 37.5938 113.301C37.5938 114.734 36.4504 115.895 35.0399 115.895Z" fill="#39900E"/>
<path d="M173.755 63.5733C172.811 63.5733 172.045 62.796 172.045 61.8371C172.045 60.8782 172.811 60.1008 173.755 60.1008C174.699 60.1008 175.465 60.8782 175.465 61.8371C175.465 62.796 174.699 63.5733 173.755 63.5733Z" fill="#39900E"/>
<path d="M136.918 120.265C135.165 120.265 133.743 118.822 133.743 117.041C133.743 115.26 135.165 113.817 136.918 113.817C138.672 113.817 140.094 115.26 140.094 117.041C140.094 118.822 138.672 120.265 136.918 120.265Z" fill="#E1E4E5"/>
<path d="M175.485 113.942C174.151 113.942 173.069 112.844 173.069 111.488C173.069 110.133 174.151 109.034 175.485 109.034C176.82 109.034 177.902 110.133 177.902 111.488C177.902 112.844 176.82 113.942 175.485 113.942Z" fill="#E1E4E5"/>
<path d="M157.154 28.4407C155.476 28.4407 154.116 27.0597 154.116 25.3561C154.116 23.6525 155.476 22.2715 157.154 22.2715C158.831 22.2715 160.191 23.6525 160.191 25.3561C160.191 27.0597 158.831 28.4407 157.154 28.4407Z" fill="#E1E4E5"/>
<path d="M37.8286 53.9345C38.1735 55.2414 37.4097 56.5848 36.1225 56.935C34.8354 57.2852 33.5123 56.5096 33.1674 55.2026C32.8226 53.8957 33.5864 52.5523 34.8736 52.2021C36.1607 51.8519 37.4837 52.6275 37.8286 53.9345Z" fill="#E1E4E5"/>
<path d="M62.9073 27.284C61.1345 27.284 59.6974 25.8247 59.6974 24.0247C59.6974 22.2246 61.1345 20.7654 62.9073 20.7654C64.6801 20.7654 66.1172 22.2246 66.1172 24.0247C66.1172 25.8247 64.6801 27.284 62.9073 27.284Z" fill="#E1E4E5"/>
<path d="M169.468 86.5825C168.105 86.5825 166.999 85.6845 166.999 84.5768C166.999 83.469 168.105 82.571 169.468 82.571C170.832 82.571 171.938 83.469 171.938 84.5768C171.938 85.6845 170.832 86.5825 169.468 86.5825Z" fill="#E1E4E5"/>
<path d="M176.77 15.925C177.488 18.6451 175.898 21.441 173.22 22.1699C170.541 22.8987 167.787 21.2845 167.069 18.5644C166.351 15.8442 167.941 13.0483 170.62 12.3195C173.299 11.5906 176.053 13.2048 176.77 15.925Z" fill="#E1E4E5"/>
<path d="M22.1717 31.0852H22.2068C22.415 34.0818 24.6099 34.1278 24.6099 34.1278C24.6099 34.1278 22.1897 34.1758 22.1897 37.6383C22.1897 34.1758 19.7695 34.1278 19.7695 34.1278C19.7695 34.1278 21.9633 34.0818 22.1717 31.0852ZM66.5825 112.621H66.6163C66.8163 115.609 68.9234 115.655 68.9234 115.655C68.9234 115.655 66.5999 115.702 66.5999 119.155C66.5999 115.702 64.2761 115.655 64.2761 115.655C64.2761 115.655 66.3826 115.609 66.5825 112.621Z" fill="#E1E4E5"/>
<path d="M40.2539 11.9563H79.3109C96.6696 11.9563 101.009 24.9546 101.009 24.9546V121.1C101.009 121.1 92.3297 108.102 79.3109 108.102H40.2539V11.9563Z" fill="#39900E"/>
<path fill-rule="evenodd" clip-rule="evenodd" d="M124.325 11.9741V41.7406L136.481 33.9449L148.637 41.7406V11.9746H161.767V108.12H122.71C109.691 108.12 101.012 121.118 101.012 121.118V24.9724C101.012 24.9724 105.351 11.9741 122.71 11.9741H124.325Z" fill="#39900E"/>
<path d="M92.062 52.1208H51.5586M92.062 61.4462H51.5586M92.062 70.7713H51.5586M92.062 80.0964H51.5586M92.062 89.4218H51.5586M51.5586 42.7957H92.062M151.64 52.1208H111.136M151.64 61.4462H111.137M151.64 70.7713H111.137M151.64 80.0964H111.137M151.64 89.4218H111.137" stroke="white" stroke-width="3" stroke-linecap="round" stroke-linejoin="round"/>
</g>
<defs>
<linearGradient id="paint0_linear_3771_13645" x1="91.9906" y1="174.07" x2="89.9377" y2="-86.8588" gradientUnits="userSpaceOnUse">
<stop stop-color="white"/>
<stop offset="1" stop-color="#EEEEEE"/>
</linearGradient>
<linearGradient id="paint1_linear_3771_13645" x1="174.701" y1="81.6519" x2="195.721" y2="65.277" gradientUnits="userSpaceOnUse">
<stop stop-color="white"/>
<stop offset="1" stop-color="#EEEEEE"/>
</linearGradient>
<linearGradient id="paint2_linear_3771_13645" x1="27.9539" y1="87.1461" x2="-2.06119" y2="59.6805" gradientUnits="userSpaceOnUse">
<stop stop-color="white"/>
<stop offset="1" stop-color="#EEEEEE"/>
</linearGradient>
<clipPath id="clip0_3771_13645">
<rect width="195" height="132" fill="white" transform="translate(0.5)"/>
</clipPath>
</defs>
</svg>
