<svg width="119" height="164" viewBox="0 0 119 164" fill="none" xmlns="http://www.w3.org/2000/svg">
<path d="M11.9724 146.587C17.8704 146.545 23.2236 123.721 23.929 95.6089C24.6344 67.4971 20.425 44.7427 14.527 44.7855C8.62894 44.8283 3.2758 67.6522 2.57037 95.7639C1.86495 123.876 6.07438 146.63 11.9724 146.587Z" stroke="#9747FF" stroke-miterlimit="10" stroke-linecap="round" stroke-linejoin="round"/>
<path d="M77.0789 147.227C82.7878 147.186 88.084 124.244 88.9082 95.985C89.7324 67.7261 85.7725 44.851 80.0636 44.8921C74.3546 44.9332 69.0584 67.8749 68.2342 96.1338C67.41 124.393 71.3699 147.268 77.0789 147.227Z" stroke="#9747FF" stroke-linecap="round" stroke-linejoin="round" stroke-dasharray="8.07 6.05"/>
<path d="M13.5078 144.666L78.667 145.118" stroke="#9747FF" stroke-miterlimit="10" stroke-linecap="round" stroke-linejoin="round"/>
<path d="M13.1602 46.9287L78.3191 47.3818" stroke="#9747FF" stroke-miterlimit="10" stroke-linecap="round" stroke-linejoin="round"/>
<path d="M11.4336 33.2382L76.5938 33.6902" stroke="#9747FF" stroke-miterlimit="10" stroke-linecap="round" stroke-linejoin="round"/>
<path d="M43.6515 29.9875L47.5361 11.9615L51.6928 30.4362" stroke="#9747FF" stroke-miterlimit="10" stroke-linecap="round" stroke-linejoin="round"/>
<path d="M42.1851 23.9814L53.0717 22.7848" stroke="#9747FF" stroke-miterlimit="10" stroke-linecap="round" stroke-linejoin="round"/>
<path d="M11.3671 36.6515L11.3438 30.0629" stroke="#9747FF" stroke-miterlimit="10" stroke-linecap="round" stroke-linejoin="round"/>
<path d="M76.6913 36.9453L76.668 30.3567" stroke="#9747FF" stroke-miterlimit="10" stroke-linecap="round" stroke-linejoin="round"/>
<path d="M15.1627 143.714C11.3646 138.42 8.03794 130.541 5.05859 124.47" stroke="#9747FF" stroke-miterlimit="10" stroke-linecap="round" stroke-linejoin="round"/>
<path d="M17.8178 139.46C13.6101 131.455 8.31491 122.608 3.60547 115.061" stroke="#9747FF" stroke-miterlimit="10" stroke-linecap="round" stroke-linejoin="round"/>
<path d="M19.6391 134.558C14.1297 124.955 2.50391 105.587 2.50391 105.587" stroke="#9747FF" stroke-miterlimit="10" stroke-linecap="round" stroke-linejoin="round"/>
<path d="M21.1135 129.69C19.1886 127.377 6.05081 106.179 2.44922 98.1184" stroke="#9747FF" stroke-miterlimit="10" stroke-linecap="round" stroke-linejoin="round"/>
<path d="M22.1495 121.066C20.5447 119.302 2.42578 90.522 2.42578 90.522" stroke="#9747FF" stroke-miterlimit="10" stroke-linecap="round" stroke-linejoin="round"/>
<path d="M2.60156 85.4895L22.7298 115.518" stroke="#9747FF" stroke-miterlimit="10" stroke-linecap="round" stroke-linejoin="round"/>
<path d="M2.75781 79.9679L22.2207 108.137" stroke="#9747FF" stroke-miterlimit="10" stroke-linecap="round" stroke-linejoin="round"/>
<path d="M3.26562 75.4177L24.0917 104.188" stroke="#9747FF" stroke-miterlimit="10" stroke-linecap="round" stroke-linejoin="round"/>
<path d="M24.541 98.5835C24.541 98.5835 9.56696 76.6794 6.67578 74.5479" stroke="#9747FF" stroke-miterlimit="10" stroke-linecap="round" stroke-linejoin="round"/>
<path d="M3.00781 66.6429L24.07 95.0067" stroke="#9747FF" stroke-miterlimit="10" stroke-linecap="round" stroke-linejoin="round"/>
<path d="M5.33594 64.1995L23.6422 87.3686" stroke="#9747FF" stroke-miterlimit="10" stroke-linecap="round" stroke-linejoin="round"/>
<path d="M6.37109 59.905L22.6225 79.8866" stroke="#9747FF" stroke-miterlimit="10" stroke-linecap="round" stroke-linejoin="round"/>
<path d="M6.94141 55.2333L23.3678 74.2809" stroke="#9747FF" stroke-miterlimit="10" stroke-linecap="round" stroke-linejoin="round"/>
<path d="M7.8125 52.6069L21.8138 68.1546" stroke="#9747FF" stroke-miterlimit="10" stroke-linecap="round" stroke-linejoin="round"/>
<path d="M9.22656 49.6796L21.3987 61.4323" stroke="#9747FF" stroke-miterlimit="10" stroke-linecap="round" stroke-linejoin="round"/>
<path d="M11.4102 47.2953L19.4574 54.4405" stroke="#9747FF" stroke-miterlimit="10" stroke-linecap="round" stroke-linejoin="round"/>
</svg>
