<svg width="120" height="161" viewBox="0 0 120 161" fill="none" xmlns="http://www.w3.org/2000/svg">
<path d="M11.2137 145.605C16.6923 145.638 22.0455 122.868 23.1703 94.7459C24.2951 66.6242 20.7657 43.8003 15.2871 43.7675C9.80848 43.7346 4.45533 66.5052 3.3305 94.627C2.20566 122.749 5.7351 145.573 11.2137 145.605Z" stroke="#39900E" stroke-miterlimit="10" stroke-linecap="round" stroke-linejoin="round"/>
<path d="M75.7964 146.151C80.7968 146.234 86.0929 123.427 87.6257 95.2094C89.1585 66.9922 86.3474 44.0506 81.347 43.9677C76.3466 43.8849 71.0504 66.6923 69.5177 94.9094C67.9849 123.127 70.796 146.068 75.7964 146.151Z" stroke="#39900E" stroke-linecap="round" stroke-linejoin="round" stroke-dasharray="8.07 6.05"/>
<path d="M13.5234 143.35L78.6481 144.434" stroke="#39900E" stroke-miterlimit="10" stroke-linecap="round" stroke-linejoin="round"/>
<path d="M13.1758 45.6125L78.3001 46.698" stroke="#39900E" stroke-miterlimit="10" stroke-linecap="round" stroke-linejoin="round"/>
<path d="M11.4531 31.9221L76.5788 33.0062" stroke="#39900E" stroke-miterlimit="10" stroke-linecap="round" stroke-linejoin="round"/>
<path d="M43.659 28.9842L47.7111 10.8994L51.3956 29.5398" stroke="#39900E" stroke-miterlimit="10" stroke-linecap="round" stroke-linejoin="round"/>
<path d="M42.1855 22.9798L53.0721 21.7864" stroke="#39900E" stroke-miterlimit="10" stroke-linecap="round" stroke-linejoin="round"/>
<path d="M11.3438 35.6519L11.3672 29.0629" stroke="#39900E" stroke-miterlimit="10" stroke-linecap="round" stroke-linejoin="round"/>
<path d="M76.6641 35.9457L76.6875 29.3567" stroke="#39900E" stroke-miterlimit="10" stroke-linecap="round" stroke-linejoin="round"/>
<path d="M14.8438 142.853C11.2494 137.47 8.15737 129.487 5.37109 123.33" stroke="#39900E" stroke-miterlimit="10" stroke-linecap="round" stroke-linejoin="round"/>
<path d="M17.4126 138.655C13.4576 130.528 8.45903 121.537 4.00781 113.866" stroke="#39900E" stroke-miterlimit="10" stroke-linecap="round" stroke-linejoin="round"/>
<path d="M19.1556 133.792C13.9599 124.036 2.98047 104.352 2.98047 104.352" stroke="#39900E" stroke-miterlimit="10" stroke-linecap="round" stroke-linejoin="round"/>
<path d="M20.5906 128.946C18.7573 126.588 6.33807 105.039 2.97266 96.8625" stroke="#39900E" stroke-miterlimit="10" stroke-linecap="round" stroke-linejoin="round"/>
<path d="M21.6375 120.335C20.1031 118.534 2.93359 89.2531 2.93359 89.2531" stroke="#39900E" stroke-miterlimit="10" stroke-linecap="round" stroke-linejoin="round"/>
<path d="M3.10156 84.2157L22.2241 114.791" stroke="#39900E" stroke-miterlimit="10" stroke-linecap="round" stroke-linejoin="round"/>
<path d="M3.23047 78.7036L21.7476 107.402" stroke="#39900E" stroke-miterlimit="10" stroke-linecap="round" stroke-linejoin="round"/>
<path d="M3.75 74.1356L23.6063 103.47" stroke="#39900E" stroke-miterlimit="10" stroke-linecap="round" stroke-linejoin="round"/>
<path d="M24.1353 97.8251C24.1353 97.8251 9.87257 75.4978 7.08203 73.3064" stroke="#39900E" stroke-miterlimit="10" stroke-linecap="round" stroke-linejoin="round"/>
<path d="M3.48828 65.3582L23.5924 94.2915" stroke="#39900E" stroke-miterlimit="10" stroke-linecap="round" stroke-linejoin="round"/>
<path d="M5.73047 62.9529L23.2501 86.6152" stroke="#39900E" stroke-miterlimit="10" stroke-linecap="round" stroke-linejoin="round"/>
<path d="M6.71094 58.6864L22.2823 79.105" stroke="#39900E" stroke-miterlimit="10" stroke-linecap="round" stroke-linejoin="round"/>
<path d="M7.26562 54.0131L23.0406 73.501" stroke="#39900E" stroke-miterlimit="10" stroke-linecap="round" stroke-linejoin="round"/>
<path d="M8.07812 51.4198L21.5458 67.3418" stroke="#39900E" stroke-miterlimit="10" stroke-linecap="round" stroke-linejoin="round"/>
<path d="M9.42969 48.5182L21.1938 60.5938" stroke="#39900E" stroke-miterlimit="10" stroke-linecap="round" stroke-linejoin="round"/>
<path d="M11.5312 46.1891L19.3288 53.5467" stroke="#39900E" stroke-miterlimit="10" stroke-linecap="round" stroke-linejoin="round"/>
</svg>
