<svg width="150" height="143" viewBox="0 0 150 143" fill="none" xmlns="http://www.w3.org/2000/svg">
<path d="M136.547 141.296L138.37 21.6098" stroke="#9747FF" stroke-miterlimit="10" stroke-linecap="round" stroke-linejoin="round"/>
<path d="M147.422 29.1055L34.8309 27.3905" stroke="#9747FF" stroke-miterlimit="10" stroke-linecap="round" stroke-linejoin="round"/>
<path d="M38.1183 65.7259C38.1183 65.7259 122.954 77.1953 137.671 28.9578" stroke="#9747FF" stroke-miterlimit="10" stroke-linecap="round" stroke-linejoin="round"/>
<path d="M121.015 107.309C121.25 104.212 121.009 101.08 120.304 98.0553" stroke="#9747FF" stroke-miterlimit="10" stroke-linecap="round" stroke-linejoin="round"/>
<path d="M117.092 108.218C117.403 104.34 117.327 100.432 116.865 96.569" stroke="#9747FF" stroke-miterlimit="10" stroke-linecap="round" stroke-linejoin="round"/>
<path d="M128.777 107.477C123.605 107.153 118.414 107.153 113.242 107.478" stroke="#9747FF" stroke-miterlimit="10" stroke-linecap="round" stroke-linejoin="round"/>
<path d="M108.465 103.724C106.848 103.699 105.232 103.674 103.615 103.65" stroke="#9747FF" stroke-miterlimit="10" stroke-linecap="round" stroke-linejoin="round"/>
<path d="M108.517 99.8891C106.899 99.5924 105.212 99.6757 103.632 100.132" stroke="#9747FF" stroke-miterlimit="10" stroke-linecap="round" stroke-linejoin="round"/>
<path d="M90.3031 118.395C91.5067 119.153 93.2093 118.597 94.0865 117.478C94.9646 116.358 95.1706 114.849 95.1163 113.428C94.9077 108.016 91.4879 103.315 89.8403 98.1552C89.3458 96.6055 89.0102 94.9361 89.4043 93.358C89.7984 91.7798 91.0936 90.3333 92.7156 90.214C94.3376 90.0947 95.9716 91.7468 95.4799 93.2975" stroke="#9747FF" stroke-miterlimit="10" stroke-linecap="round" stroke-linejoin="round"/>
<path d="M92.5213 128.188C93.7898 126.324 98.774 126.286 99.2985 128.622C99.8323 133.234 93.617 130.974 92.2882 129.242C91.2654 127.91 87.5828 126.083 86.0308 126.728C84.7284 127.269 84.3279 129.133 85.091 130.32C85.854 131.507 87.4531 131.971 88.8309 131.669C90.2086 131.367 91.3731 130.423 92.251 129.319" stroke="#9747FF" stroke-miterlimit="10" stroke-linecap="round" stroke-linejoin="round"/>
<path d="M92.6608 79.6404C93.9293 77.7765 97.6281 77.6198 98.5803 79.1905C99.5325 80.7612 98.0497 83.0349 95.6123 82.9077C93.8595 82.816 92.1431 80.7956 90.6991 79.7975C89.3165 78.8424 87.7222 77.5359 86.1712 78.1804C84.8688 78.7216 84.4684 80.5857 85.2314 81.7725C85.9944 82.9593 87.5936 83.4237 88.9713 83.1216C90.3491 82.8195 91.5136 81.8752 92.3915 80.7714" stroke="#9747FF" stroke-miterlimit="10" stroke-linecap="round" stroke-linejoin="round"/>
<path d="M75.4403 119.2C74.9637 115.359 74.4882 111.516 74.0116 107.674C74.4748 110.16 77.2564 112.115 79.6357 111.26C82.014 110.406 82.6709 106.539 80.4901 105.261C79.2649 104.543 77.6549 104.795 76.4454 105.541C75.2369 106.287 74.3511 107.447 73.5294 108.606" stroke="#9747FF" stroke-miterlimit="10" stroke-linecap="round" stroke-linejoin="round"/>
<path d="M71.9453 114.795C70.5812 111.966 68.4191 109.527 65.7756 107.832" stroke="#9747FF" stroke-miterlimit="10" stroke-linecap="round" stroke-linejoin="round"/>
<path d="M67.5705 115.725C68.7835 112.849 69.9974 109.973 71.2104 107.096" stroke="#9747FF" stroke-miterlimit="10" stroke-linecap="round" stroke-linejoin="round"/>
<path d="M84.7593 100.231C82.5908 100.246 80.4213 100.262 78.2528 100.278C71.3603 100.327 64.4677 100.376 57.5742 100.426" stroke="#9747FF" stroke-miterlimit="10" stroke-linecap="round" stroke-linejoin="round"/>
<path d="M81.4458 93.6103C81.6559 91.5052 81.5255 89.366 81.0608 87.3017" stroke="#9747FF" stroke-miterlimit="10" stroke-linecap="round" stroke-linejoin="round"/>
<path d="M75.097 95.4515C75.3619 93.0253 75.2595 90.5604 74.7959 88.1641" stroke="#9747FF" stroke-miterlimit="10" stroke-linecap="round" stroke-linejoin="round"/>
<path d="M78.0853 92.0957C76.1072 91.9556 74.0983 92.264 72.253 92.991" stroke="#9747FF" stroke-miterlimit="10" stroke-linecap="round" stroke-linejoin="round"/>
<path d="M69.1094 94.0581C67.5632 91.7623 65.6117 89.7393 63.3723 88.112" stroke="#9747FF" stroke-miterlimit="10" stroke-linecap="round" stroke-linejoin="round"/>
<path d="M64.6771 94.9166C66.0964 92.1509 67.5166 89.3862 68.9359 86.6205" stroke="#9747FF" stroke-miterlimit="10" stroke-linecap="round" stroke-linejoin="round"/>
<path d="M59.9634 95.1822C60.5809 95.8797 59.4659 97.0519 58.6135 96.6748C57.7612 96.2978 57.5816 95.0839 58.0073 94.2543C58.432 93.4247 59.2622 92.8943 60.0538 92.4043C58.3026 92.3376 56.5524 92.2719 54.8012 92.2053" stroke="#9747FF" stroke-miterlimit="10" stroke-linecap="round" stroke-linejoin="round"/>
<path d="M105.941 78.4624C104.649 78.4427 103.355 78.423 102.062 78.4033" stroke="#9747FF" stroke-miterlimit="10" stroke-linecap="round" stroke-linejoin="round"/>
<path d="M143.981 23.0082C145.624 21.7511 146.208 19.5137 146.183 17.4451C146.166 16.1107 145.583 14.4366 144.249 14.3963C143.039 14.3609 142.322 15.7131 141.961 16.8677C141.593 18.0483 141.287 19.3018 141.542 20.5118C141.796 21.7218 142.769 22.8638 144.004 22.9236" stroke="#9747FF" stroke-miterlimit="10" stroke-linecap="round" stroke-linejoin="round"/>
<path d="M105.603 12.9956C105.996 11.7844 106.352 10.4797 106.006 9.25427C105.66 8.02887 104.336 6.99357 103.136 7.42135C102.162 7.76855 101.689 8.87648 101.53 9.89819C101.372 10.9199 101.405 11.9995 100.959 12.9328C101.46 11.6783 101.266 10.2602 100.951 8.94726C100.637 7.63333 100.207 6.31962 100.261 4.9703C100.316 3.62097 100.989 2.18607 102.251 1.70424C103.513 1.22239 105.229 2.22165 105.066 3.56233" stroke="#9747FF" stroke-miterlimit="10" stroke-linecap="round" stroke-linejoin="round"/>
<path d="M96.3723 12.0118C94.7987 11.5108 93.0705 11.5125 91.4977 12.0156" stroke="#9747FF" stroke-miterlimit="10" stroke-linecap="round" stroke-linejoin="round"/>
<path d="M96.7589 7.9332C94.8571 7.24916 92.6915 7.33721 90.8516 8.17328" stroke="#9747FF" stroke-miterlimit="10" stroke-linecap="round" stroke-linejoin="round"/>
<path d="M88.4941 15.0471C87.8512 12.472 86.5146 10.0744 84.6623 8.17397C83.1535 10.9773 82.9778 14.305 83.1894 17.4816C83.2057 17.7249 83.2187 17.9881 83.0816 18.1901C82.8811 18.485 82.4656 18.5117 82.1096 18.5103C76.0823 18.4875 70.055 18.7897 64.0607 19.4175" stroke="#9747FF" stroke-miterlimit="10" stroke-linecap="round" stroke-linejoin="round"/>
<path d="M78.6094 13.3535C77.1491 11.262 75.2794 8.59625 73.1189 7.23919" stroke="#9747FF" stroke-miterlimit="10" stroke-linecap="round" stroke-linejoin="round"/>
<path d="M73.8487 14.2023C75.5389 11.4427 77.3976 8.7867 79.4114 6.25407" stroke="#9747FF" stroke-miterlimit="10" stroke-linecap="round" stroke-linejoin="round"/>
<path d="M38.7617 32.1367C36.8784 30.2368 35.2872 28.0733 32.6552 27.5932C34.6725 26.3438 36.3265 24.5167 37.3691 22.3854" stroke="#9747FF" stroke-miterlimit="10" stroke-linecap="round" stroke-linejoin="round"/>
<path d="M30.3242 26.3535C28.5411 24.4461 25.0416 20.7704 23.2575 18.863" stroke="#9747FF" stroke-miterlimit="10" stroke-linecap="round" stroke-linejoin="round"/>
<path d="M24.3533 26.3076C26.3325 24.0795 28.7997 21.5257 29.9208 18.7645" stroke="#9747FF" stroke-miterlimit="10" stroke-linecap="round" stroke-linejoin="round"/>
<path d="M141.718 136.251C139.873 137.975 138.341 140.033 137.221 142.296C134.708 139.848 132.193 137.4 129.68 134.952" stroke="#9747FF" stroke-miterlimit="10" stroke-linecap="round" stroke-linejoin="round"/>
<path d="M147.215 131.003C148.27 129.519 147.334 127.083 145.556 126.688C143.778 126.293 141.899 128.102 142.226 129.894C142.236 127.661 142.247 125.427 142.257 123.193C142.262 122.047 142.274 120.869 142.707 119.809C143.14 118.748 144.1 117.82 145.245 117.779C146.39 117.739 147.521 118.899 147.174 119.991" stroke="#9747FF" stroke-miterlimit="10" stroke-linecap="round" stroke-linejoin="round"/>
<path d="M44.8619 119.535C43.5935 117.055 42.3241 114.576 41.0557 112.097C40.9392 111.87 40.8078 111.627 40.5775 111.517C39.9162 111.2 39.4054 112.168 39.3154 112.894C38.7327 117.598 38.8278 122.385 39.5976 127.061C39.7295 127.86 39.7698 128.892 39.0423 129.247C38.7289 129.4 38.3594 129.366 38.0129 129.329C32.0371 128.679 25.9092 128.102 20.083 129.583" stroke="#9747FF" stroke-miterlimit="10" stroke-linecap="round" stroke-linejoin="round"/>
<path d="M32.8789 122.29C30.3948 119.193 27.3993 116.508 24.0504 114.378" stroke="#9747FF" stroke-miterlimit="10" stroke-linecap="round" stroke-linejoin="round"/>
<path d="M25.9593 122.187C28.8194 119.381 31.0206 115.907 32.3383 112.122" stroke="#9747FF" stroke-miterlimit="10" stroke-linecap="round" stroke-linejoin="round"/>
<path d="M14.1562 120.369C11.9825 120.336 9.80774 120.303 7.634 120.27" stroke="#9747FF" stroke-miterlimit="10" stroke-linecap="round" stroke-linejoin="round"/>
<path d="M12.5796 115.756C10.6754 116.017 8.77126 116.277 6.86806 116.538" stroke="#9747FF" stroke-miterlimit="10" stroke-linecap="round" stroke-linejoin="round"/>
<path d="M-0.500688 127.946C-1.08992 129.204 -1.67918 130.463 -2.26941 131.721C-2.38768 126.354 -2.50496 120.988 -2.62322 115.62" stroke="#9747FF" stroke-miterlimit="10" stroke-linecap="round" stroke-linejoin="round"/>
</svg>
