<svg width="165" height="87" viewBox="0 0 165 87" fill="none" xmlns="http://www.w3.org/2000/svg">
<path d="M35.9844 5.91504V82.571H154.533" stroke="#9747FF" stroke-miterlimit="10" stroke-linecap="round" stroke-linejoin="round"/>
<path d="M38.3047 79.857C40.1047 72.775 51.6767 48.934 66.8637 43.469C82.0507 38.004 93.0247 62.671 111.827 62.816C130.629 62.961 146.334 22.15 149.799 15.978" stroke="#9747FF" stroke-miterlimit="10" stroke-linecap="round" stroke-linejoin="round"/>
<path d="M27.4964 81.4251C27.0654 83.0561 26.9174 84.7451 27.3294 86.3801C27.8114 88.2921 29.7844 89.0721 31.1604 87.5121C32.7114 85.7541 32.0324 81.7131 31.6864 81.0071C31.0344 79.6781 29.3254 78.7951 27.9494 80.3551" stroke="#9747FF" stroke-miterlimit="10" stroke-linecap="round" stroke-linejoin="round"/>
<path d="M26.4582 10.5571C25.6812 16.7501 30.3252 18.1012 31.4532 10.8922C31.5622 13.4712 31.6722 16.0491 31.7812 18.6281C31.8142 19.4051 31.8372 20.2261 31.4622 20.9071C30.9622 21.8171 29.7382 22.2501 28.7772 21.8561C27.8162 21.4621 27.2472 20.2961 27.5282 19.2961" stroke="#9747FF" stroke-miterlimit="10" stroke-linecap="round" stroke-linejoin="round"/>
<path d="M158.566 80.7788C159.956 83.6608 162.103 86.1728 164.734 87.9938" stroke="#9747FF" stroke-miterlimit="10" stroke-linecap="round" stroke-linejoin="round"/>
<path d="M163.58 80.4009C162.148 83.6419 159.919 86.5269 157.145 88.7299" stroke="#9747FF" stroke-miterlimit="10" stroke-linecap="round" stroke-linejoin="round"/>
<path d="M43.2422 69.3838C43.8702 74.1328 43.8832 81.7658 43.8832 81.7658" stroke="#9747FF" stroke-miterlimit="10" stroke-linecap="round" stroke-linejoin="round"/>
<path d="M47.7591 61.8848C47.5301 68.6298 48.7481 81.3138 48.7481 81.3138" stroke="#9747FF" stroke-miterlimit="10" stroke-linecap="round" stroke-linejoin="round"/>
<path d="M52.5836 54.501C51.9426 63.722 52.2596 73.009 53.5286 82.164" stroke="#9747FF" stroke-miterlimit="10" stroke-linecap="round" stroke-linejoin="round"/>
<path d="M57.7799 49.0659C57.4659 57.6899 57.8159 73.1639 58.5189 81.7649" stroke="#9747FF" stroke-miterlimit="10" stroke-linecap="round" stroke-linejoin="round"/>
<path d="M62.3843 46.8911C61.5303 57.8661 61.5603 68.9111 62.4753 79.8811" stroke="#9747FF" stroke-miterlimit="10" stroke-linecap="round" stroke-linejoin="round"/>
<path d="M66.8907 44.2358C66.6147 55.9718 66.7567 67.7188 67.3147 79.4448" stroke="#9747FF" stroke-miterlimit="10" stroke-linecap="round" stroke-linejoin="round"/>
<path d="M71.0859 44.6958C71.8879 57.0048 72.2259 69.3448 72.0989 81.6798" stroke="#9747FF" stroke-miterlimit="10" stroke-linecap="round" stroke-linejoin="round"/>
<path d="M75.793 44.251C76.107 56.874 76.421 69.498 76.735 82.121" stroke="#9747FF" stroke-miterlimit="10" stroke-linecap="round" stroke-linejoin="round"/>
<path d="M80.9492 47.8091C81.1292 59.0991 81.3092 70.3891 81.4892 81.6791" stroke="#9747FF" stroke-miterlimit="10" stroke-linecap="round" stroke-linejoin="round"/>
<path d="M85.4375 50.4829C85.6165 60.1389 85.7965 69.7939 85.9755 79.4499" stroke="#9747FF" stroke-miterlimit="10" stroke-linecap="round" stroke-linejoin="round"/>
<path d="M88.9844 52.7119C89.3404 62.5149 89.6964 72.3169 90.0524 82.1199" stroke="#9747FF" stroke-miterlimit="10" stroke-linecap="round" stroke-linejoin="round"/>
<path d="M93.7031 56.7178C93.8441 65.5958 94.2881 82.2378 94.3701 81.6798" stroke="#9747FF" stroke-miterlimit="10" stroke-linecap="round" stroke-linejoin="round"/>
<path d="M98.8008 61.625C98.8518 68.616 99.0728 75.605 99.4638 82.586" stroke="#9747FF" stroke-miterlimit="10" stroke-linecap="round" stroke-linejoin="round"/>
<path d="M102.691 62.9722C103.101 68.9172 103.511 76.1062 103.921 82.0512" stroke="#9747FF" stroke-miterlimit="10" stroke-linecap="round" stroke-linejoin="round"/>
<path d="M107.324 63.4058C107.515 69.0548 107.705 75.9478 107.896 81.5968" stroke="#9747FF" stroke-miterlimit="10" stroke-linecap="round" stroke-linejoin="round"/>
<path d="M112.195 62.9609C112.195 68.6059 112.195 75.4959 112.195 81.1409" stroke="#9747FF" stroke-miterlimit="10" stroke-linecap="round" stroke-linejoin="round"/>
<path d="M117.438 62.5078C117.02 68.1588 116.933 75.0798 117.179 80.7408C117.188 80.9588 117.242 81.2318 117.454 81.2818C117.666 81.3318 117.695 80.8648 117.504 80.9708" stroke="#9747FF" stroke-miterlimit="10" stroke-linecap="round" stroke-linejoin="round"/>
<path d="M120.785 59.8389C120.935 66.3749 121.085 74.1559 121.235 80.6929" stroke="#9747FF" stroke-miterlimit="10" stroke-linecap="round" stroke-linejoin="round"/>
<path d="M124.748 59.3999C124.356 66.5379 124.537 74.9519 125.288 82.0619" stroke="#9747FF" stroke-miterlimit="10" stroke-linecap="round" stroke-linejoin="round"/>
<path d="M127.969 54.4902C128.177 63.2572 128.385 73.2682 128.592 82.0352" stroke="#9747FF" stroke-miterlimit="10" stroke-linecap="round" stroke-linejoin="round"/>
<path d="M132.779 48.7041C132.16 60.2981 132.557 70.0791 133.964 81.6041" stroke="#9747FF" stroke-miterlimit="10" stroke-linecap="round" stroke-linejoin="round"/>
<path d="M137.474 41.1152C136.483 54.9062 136.613 68.7782 137.862 82.5482" stroke="#9747FF" stroke-miterlimit="10" stroke-linecap="round" stroke-linejoin="round"/>
<path d="M141.545 33.9941C141.83 49.8901 141.75 65.7921 141.305 81.6841" stroke="#9747FF" stroke-miterlimit="10" stroke-linecap="round" stroke-linejoin="round"/>
<path d="M146.5 26.416C146.406 44.692 146.734 62.97 147.483 81.231" stroke="#9747FF" stroke-miterlimit="10" stroke-linecap="round" stroke-linejoin="round"/>
<path d="M1.09375 43.6858C3.06175 42.6528 4.38177 40.6428 5.00577 38.5098C5.62977 36.3768 5.63075 34.1138 5.50275 31.8948C5.49175 31.7088 5.47676 31.5118 5.37076 31.3578C5.07076 30.9218 4.37274 31.1768 3.99374 31.5468C2.79274 32.7228 2.50074 34.5248 2.35974 36.1998C2.06174 39.7258 2.14574 43.2838 2.60974 46.7908C2.68074 47.3308 2.77475 47.8998 3.12875 48.3138C3.48275 48.7278 4.18775 48.8868 4.56775 48.4968" stroke="#9747FF" stroke-miterlimit="10" stroke-linecap="round" stroke-linejoin="round"/>
<path d="M6.35938 42.7271C6.35938 44.7861 6.35938 46.845 6.35938 48.903" stroke="#9747FF" stroke-miterlimit="10" stroke-linecap="round" stroke-linejoin="round"/>
<path d="M8.89844 42.164C9.29144 43.996 9.68543 45.827 10.0784 47.659C9.21643 45.204 10.1474 42.235 12.2554 40.711C12.9984 42.467 13.2855 44.414 13.0815 46.31C13.1225 44.191 14.0454 42.103 15.5844 40.646C16.4884 42.989 16.7734 45.568 16.4034 48.052" stroke="#9747FF" stroke-miterlimit="10" stroke-linecap="round" stroke-linejoin="round"/>
<path d="M1.30078 55.647C2.52478 57.733 3.94578 59.703 5.53778 61.522" stroke="#9747FF" stroke-miterlimit="10" stroke-linecap="round" stroke-linejoin="round"/>
<path d="M4.54401 54.9932C2.99601 57.3542 1.798 59.9442 1 62.6522" stroke="#9747FF" stroke-miterlimit="10" stroke-linecap="round" stroke-linejoin="round"/>
<path d="M7.76562 58.168C9.18362 58.168 12.8166 58.382 12.7246 58.489" stroke="#9747FF" stroke-miterlimit="10" stroke-linecap="round" stroke-linejoin="round"/>
<path d="M9.62891 56.0039C10.5149 57.0459 11.7039 57.8269 13.0119 58.2269C11.9729 58.8819 11.0549 59.7299 10.3199 60.7149" stroke="#9747FF" stroke-miterlimit="10" stroke-linecap="round" stroke-linejoin="round"/>
<path d="M19.5291 56.6101C19.5661 55.2951 18.2031 53.4301 16.7521 54.5361C14.8271 56.0041 14.6301 58.1681 16.2821 58.9921C19.8081 60.7501 21.0441 52.4811 24.0931 54.8341C26.1551 56.4261 25.5061 61.2331 20.1291 57.2661" stroke="#9747FF" stroke-miterlimit="10" stroke-linecap="round" stroke-linejoin="round"/>
<path d="M77.4002 6.19577C77.6152 4.84977 77.3352 3.42977 76.6272 2.26477C75.9432 1.84077 74.9912 2.19576 74.5002 2.83276C74.0092 3.46976 73.8672 4.30277 73.7642 5.10077C73.2622 8.98477 73.3092 12.9388 73.9022 16.8088C74.3832 19.9478 75.1762 23.3688 73.6202 26.1368C73.1372 26.9958 72.0052 27.7868 71.2482 27.1558C70.3272 26.3888 71.3002 24.6258 70.4492 23.7828" stroke="#9747FF" stroke-miterlimit="10" stroke-linecap="round" stroke-linejoin="round"/>
<path d="M78.8906 12.7592C80.2356 12.9382 81.6186 12.8332 82.9206 12.4512" stroke="#9747FF" stroke-miterlimit="10" stroke-linecap="round" stroke-linejoin="round"/>
<path d="M79.2578 16.8459C80.7178 16.6969 82.1768 16.5489 83.6368 16.3999" stroke="#9747FF" stroke-miterlimit="10" stroke-linecap="round" stroke-linejoin="round"/>
<path d="M87.9375 10.979C88.4995 13.221 89.3325 15.395 90.4125 17.439C90.6355 12.584 91.0695 7.73799 91.7135 2.92099C91.7135 2.92099 111.705 1 125.31 1" stroke="#9747FF" stroke-miterlimit="10" stroke-linecap="round" stroke-linejoin="round"/>
<path d="M96.5039 8.70801C98.1949 11.012 100.258 13.042 102.59 14.694" stroke="#9747FF" stroke-miterlimit="10" stroke-linecap="round" stroke-linejoin="round"/>
<path d="M101.081 8.3208C99.4588 10.8558 97.9468 13.4618 96.5508 16.1278" stroke="#9747FF" stroke-miterlimit="10" stroke-linecap="round" stroke-linejoin="round"/>
<path d="M107.757 9.48877C107.72 11.7018 107.977 13.9198 108.52 16.0658" stroke="#9747FF" stroke-miterlimit="10" stroke-linecap="round" stroke-linejoin="round"/>
<path d="M104.844 12.7031C106.794 12.5851 108.744 12.4661 110.694 12.3481" stroke="#9747FF" stroke-miterlimit="10" stroke-linecap="round" stroke-linejoin="round"/>
<path d="M119.635 9.58308C118.902 8.70808 116.555 8.03409 114.696 8.76109C112.837 9.48909 112.627 11.7471 112.88 12.9711C113.268 14.8471 116.016 15.2941 117.564 14.1651C119.112 13.0361 119.724 11.0511 120.239 9.20509C120.095 11.1331 120.16 13.0771 120.431 14.9921" stroke="#9747FF" stroke-miterlimit="10" stroke-linecap="round" stroke-linejoin="round"/>
<path d="M122.594 5.482C123.031 4.437 123.914 2.469 125.559 3.694C127.204 4.919 124.65 8.06599 123.026 8.77899C124.553 8.77199 125.44 8.765 126.966 8.758" stroke="#9747FF" stroke-miterlimit="10" stroke-linecap="round" stroke-linejoin="round"/>
<path d="M93.1328 21.4379C103.702 20.2899 114.325 19.6379 124.955 19.4839" stroke="#9747FF" stroke-miterlimit="10" stroke-linecap="round" stroke-linejoin="round"/>
<path d="M103.711 26.001C106.272 27.583 108.833 29.165 111.393 30.746" stroke="#9747FF" stroke-miterlimit="10" stroke-linecap="round" stroke-linejoin="round"/>
<path d="M109.622 25.229C107.62 27.575 105.856 30.124 104.367 32.824" stroke="#9747FF" stroke-miterlimit="10" stroke-linecap="round" stroke-linejoin="round"/>
</svg>
