<svg width="240" height="159" viewBox="0 0 240 159" fill="none" xmlns="http://www.w3.org/2000/svg">
<mask id="mask0_3878_48689" style="mask-type:luminance" maskUnits="userSpaceOnUse" x="0" y="0" width="240" height="159">
<path d="M0.824219 0H239.172V158.899H0.824219V0Z" fill="white"/>
</mask>
<g mask="url(#mask0_3878_48689)">
<path d="M42.5583 68.2552C38.177 87.2858 68.9477 132.878 117.756 126.465C140.457 123.482 140.573 112.003 159.503 100.137C170.785 93.0646 185.96 88.8713 192.075 76.8037C197.356 66.3882 197.345 54.2049 192.841 45.4986C182.711 25.9188 158.25 9.46561 127.385 32.177C96.5188 54.8882 53.8645 19.1754 42.5583 68.2552Z" fill="url(#paint0_linear_3878_48689)"/>
<path d="M148.161 121.124C160.26 111.171 172.777 100.502 186.303 97.2186C200.255 93.8291 201.401 98.5293 200.497 105.271C199.593 112.013 191.702 126.447 172.739 130.782C153.772 135.117 136.84 130.439 148.161 121.124Z" fill="url(#paint1_linear_3878_48689)"/>
<path fill-rule="evenodd" clip-rule="evenodd" d="M178.255 58.8976V68.8148H178.258C176.821 68.5248 175.333 68.6215 173.946 69.095C172.677 69.5287 171.537 70.273 170.63 71.2601C169.722 72.2472 169.076 73.4457 168.75 74.7465C168.443 75.9483 168.414 77.2045 168.667 78.4191C168.919 79.6337 169.445 80.7746 170.205 81.7548C170.966 82.735 171.94 83.5285 173.054 84.0748C174.168 84.6211 175.391 84.9057 176.632 84.907C177.178 84.906 177.723 84.8513 178.258 84.7438V94.661C178.258 95.5148 178.09 96.3602 177.763 97.1491C177.437 97.9379 176.958 98.6546 176.354 99.2583C175.75 99.862 175.033 100.341 174.244 100.668C173.456 100.994 172.61 101.162 171.756 101.162H161.839V101.166C162.129 99.7288 162.032 98.2409 161.558 96.8538C161.125 95.585 160.38 94.4449 159.393 93.5374C158.406 92.6299 157.207 91.9838 155.906 91.6581C154.705 91.3509 153.448 91.3223 152.234 91.5745C151.019 91.8267 149.878 92.3531 148.898 93.1134C147.918 93.8737 147.124 94.8478 146.578 95.9615C146.032 97.0752 145.747 98.299 145.746 99.5394C145.746 100.086 145.801 100.63 145.909 101.166L135.994 101.162C132.404 101.163 129.493 98.2537 129.492 94.6639V84.7468C128.957 84.8545 128.412 84.9092 127.866 84.9102C126.626 84.9087 125.402 84.6239 124.288 84.0776C123.175 83.5312 122.201 82.7377 121.44 81.7576C120.68 80.7775 120.153 79.6366 119.901 78.4221C119.649 77.2076 119.677 75.9515 119.984 74.7496C120.31 73.4489 120.956 72.2505 121.864 71.2634C122.771 70.2763 123.911 69.5319 125.18 69.0981C126.567 68.6245 128.055 68.5278 129.492 68.8177H129.489V58.9005C129.489 58.0467 129.657 57.2012 129.984 56.4123C130.311 55.6235 130.79 54.9067 131.393 54.303C131.997 53.6992 132.714 53.2203 133.503 52.8936C134.292 52.5669 135.137 52.3988 135.991 52.3989H145.909C145.801 51.8636 145.746 51.3189 145.746 50.7729C145.747 49.5324 146.032 48.3085 146.578 47.1948C147.124 46.0811 147.918 45.1069 148.898 44.3465C149.878 43.5862 151.019 43.0599 152.234 42.8077C153.448 42.5556 154.705 42.5842 155.906 42.8915C157.207 43.2182 158.405 43.8646 159.392 44.772C160.379 45.6793 161.124 46.8189 161.558 48.0872C162.032 49.4743 162.129 50.9622 161.839 52.3989H171.756C173.481 52.3989 175.135 53.0839 176.354 54.3031C177.573 55.5225 178.258 57.1762 178.258 58.9005M68.8545 64.7435H78.8034V64.7403C78.5125 66.1817 78.6095 67.6745 79.0844 69.0661C79.5196 70.339 80.2664 71.4827 81.2567 72.3932C82.247 73.3036 83.4493 73.9519 84.7542 74.2788C85.9599 74.5869 87.2201 74.6155 88.4385 74.3624C89.6569 74.1093 90.8015 73.5812 91.7847 72.8185C92.768 72.0557 93.5641 71.0784 94.1121 69.9611C94.6601 68.8438 94.9457 67.6161 94.947 66.3717C94.946 65.8239 94.8911 65.2774 94.7831 64.7403H104.732C105.589 64.7403 106.437 64.909 107.228 65.2368C108.02 65.5646 108.739 66.0451 109.344 66.6508C109.95 67.2565 110.43 67.9756 110.758 68.767C111.086 69.5584 111.254 70.4066 111.254 71.2631V81.2123H111.257C109.816 80.9213 108.323 81.0184 106.932 81.4936C105.659 81.9288 104.515 82.6755 103.605 83.6658C102.694 84.6561 102.046 85.8585 101.72 87.1633C101.411 88.369 101.383 89.6292 101.636 90.8476C101.889 92.0661 102.417 93.2106 103.18 94.1939C103.942 95.1772 104.92 95.9733 106.037 96.5215C107.154 97.0696 108.382 97.3553 109.626 97.3567C110.174 97.3559 110.72 97.3011 111.257 97.193L111.254 107.139C111.255 110.74 108.336 113.661 104.735 113.662H94.7863C94.8943 114.199 94.9492 114.746 94.9499 115.293C94.9486 116.538 94.663 117.765 94.1149 118.883C93.5669 120 92.7708 120.977 91.7876 121.74C90.8043 122.503 89.6598 123.031 88.4414 123.284C87.223 123.537 85.9628 123.508 84.7571 123.2C83.4523 122.873 82.2499 122.225 81.2597 121.315C80.2694 120.404 79.5227 119.26 79.0876 117.988C78.6126 116.596 78.5155 115.103 78.8064 113.662V113.665H68.8577C68.0011 113.665 67.1529 113.496 66.3615 113.169C65.5702 112.841 64.8511 112.36 64.2454 111.755C63.6398 111.149 63.1594 110.43 62.8316 109.638C62.5039 108.847 62.3353 107.999 62.3354 107.142V97.193C61.7984 97.3011 61.2519 97.3559 60.7041 97.3567C59.4596 97.3554 58.2319 97.0698 57.1146 96.5217C55.9973 95.9736 55.02 95.1775 54.2573 94.1941C53.4945 93.2108 52.9665 92.0662 52.7136 90.8477C52.4606 89.6292 52.4893 88.369 52.7975 87.1633C53.1253 85.8589 53.7738 84.657 54.6841 83.6668C55.5944 82.6767 56.7376 81.9296 58.01 81.4936C59.4014 81.0184 60.8942 80.9213 62.3354 81.2123V71.2631C62.3353 70.4066 62.5039 69.5583 62.8316 68.7669C63.1594 67.9755 63.6398 67.2564 64.2454 66.6507C64.8511 66.045 65.5702 65.5645 66.3615 65.2367C67.1529 64.9089 68.0011 64.7403 68.8577 64.7403" fill="#9747FF"/>
<path d="M32.248 124.828C31.8804 124.305 31.6203 108.387 31.9823 107.751C32.3462 107.117 48.2806 102.488 48.2806 102.488C48.2806 102.488 53.6749 93.6985 58.7602 88.7766C60.7653 86.8336 63.6962 85.2019 64.4149 86.2938C64.8606 86.9702 64.153 88.702 63.1522 90.5248C63.1499 90.5306 63.1469 90.5361 63.1432 90.5412C61.7497 93.0767 59.7973 95.7764 59.6135 96.0298C59.6084 96.0357 59.6035 96.0418 59.599 96.0481C59.599 96.0481 72.8169 92.6903 74.8093 92.3293C76.8013 91.9649 79.4012 91.3852 79.8143 92.7306C80.1946 93.9663 76.8286 95.4138 76.6287 95.4994C76.845 95.4393 81.4189 94.176 82.0977 95.8987C82.6017 97.18 77.8713 99.6045 77.7312 99.6739C77.8493 99.6429 80.1035 99.0486 80.3419 100.12C80.733 101.883 75.8262 103.914 75.626 103.998C75.737 103.97 77.5601 103.54 77.6912 104.526C78.0151 106.969 61.1363 113.739 55.9784 115.644C50.815 117.547 32.6174 125.351 32.248 124.828ZM204.039 37.3663C204.407 37.8861 204.667 53.7034 204.305 54.3359C203.941 54.9662 188.01 59.5652 188.01 59.5652C188.01 59.5652 182.616 68.2999 177.532 73.1908C175.527 75.1219 172.596 76.743 171.878 75.658C171.432 74.9861 172.14 73.2652 173.14 71.4538C173.142 71.4482 173.146 71.4429 173.149 71.4373C174.543 68.9177 176.495 66.235 176.678 65.9831C176.689 65.9704 176.693 65.9651 176.693 65.9651C176.693 65.9651 163.477 69.3017 161.485 69.6603C159.494 70.0226 156.894 70.5986 156.481 69.2617C156.101 68.0337 159.466 66.5954 159.667 66.5104C159.45 66.57 154.877 67.8253 154.198 66.1137C153.694 64.8401 158.424 62.431 158.564 62.3621C158.446 62.3931 156.192 62.9834 155.954 61.9182C155.562 60.1666 160.469 58.1489 160.669 58.0655C160.558 58.0928 158.735 58.5202 158.604 57.5401C158.28 55.1129 175.156 48.3851 180.313 46.4923C185.476 44.6012 203.67 36.8464 204.039 37.3663Z" fill="#D9ABA1"/>
</g>
<defs>
<linearGradient id="paint0_linear_3878_48689" x1="67.4366" y1="191.215" x2="192.787" y2="-113.556" gradientUnits="userSpaceOnUse">
<stop stop-color="white"/>
<stop offset="1" stop-color="#EEEEEE"/>
</linearGradient>
<linearGradient id="paint1_linear_3878_48689" x1="147.158" y1="164.17" x2="211.804" y2="38.3922" gradientUnits="userSpaceOnUse">
<stop stop-color="white"/>
<stop offset="1" stop-color="#EEEEEE"/>
</linearGradient>
</defs>
</svg>
