<svg width="106" height="52" viewBox="0 0 106 52" fill="none" xmlns="http://www.w3.org/2000/svg">
<path d="M17.966 48.4259H0V2.70752H6.83585V22.514V42.3204H17.966V48.4259Z" fill="#F7941D"/>
<path d="M40.9859 48.4259H22.0266V2.70752H40.8106V8.75462H28.8625V22.105H39.1455V28.0352H28.8625V42.3788H40.9859V48.4259Z" fill="#F7941D"/>
<path d="M105.459 39.8081C105.459 42.4957 104.661 44.6088 103.064 46.1473C101.467 47.6664 99.3146 48.4259 96.6075 48.4259H82.6729V2.70752H96.6075C99.3146 2.70752 101.467 3.48653 103.064 5.04456C104.661 6.58312 105.459 8.69619 105.459 11.3838V39.8081ZM98.594 38.6688V12.4062C98.594 9.85498 97.2599 8.57934 94.5918 8.57934H89.5087V42.5541H94.4165C97.2015 42.5541 98.594 41.259 98.594 38.6688Z" fill="#F7941D"/>
<path d="M71.4236 0L59.5039 51.3906L78.4373 46.6908L71.4236 0Z" fill="#FF8001"/>
<path opacity="0.6" d="M61.5312 42.5992L62.2074 39.2183L78.0222 43.9192L78.436 45.9802L61.5312 42.5992Z" fill="#970001"/>
<path opacity="0.7" d="M71.6735 0L43.2734 37.2175L62.2068 39.2191L71.6735 0Z" fill="#E9B60D"/>
<path opacity="0.9" d="M70.3222 6.7627L60.8555 20.9389H66.2542L70.3222 22.9913V6.7627Z" fill="white" stroke="#D7A606" stroke-width="0.25" stroke-miterlimit="10"/>
</svg>
