<svg width="354" height="46" viewBox="0 0 354 46" fill="none" xmlns="http://www.w3.org/2000/svg">
<path d="M15.5024 42.6136H0V3.16454H5.89846V20.2549V37.3453H15.5024V42.6136Z" fill="#F7941D"/>
<path d="M35.3655 42.6136H19.0061V3.16454H35.2143V8.3824H24.9046V19.902H33.7775V25.0191H24.9046V37.3958H35.3655V42.6136Z" fill="#F7941D"/>
<path d="M90.9976 35.1775C90.9976 37.4966 90.3086 39.3199 88.9306 40.6475C87.5526 41.9582 85.6957 42.6136 83.3598 42.6136H71.336V3.16454H83.3598C85.6957 3.16454 87.5526 3.83672 88.9306 5.1811C90.3086 6.50868 90.9976 8.33199 90.9976 10.651V35.1775ZM85.0739 34.1945V11.5333C85.0739 9.33187 83.9228 8.23116 81.6205 8.23116H77.2345V37.547H81.4693C83.8724 37.547 85.0739 36.4295 85.0739 34.1945Z" fill="#F7941D"/>
<path d="M61.6289 0.828278L51.3438 45.1717L67.6808 41.1164L61.6289 0.828278Z" fill="#FF8001"/>
<path opacity="0.6" d="M53.0938 37.586L53.6772 34.6687L67.3233 38.7249L67.6804 40.5033L53.0938 37.586Z" fill="#970001"/>
<path opacity="0.7" d="M61.8454 0.828278L37.3398 32.9422L53.6769 34.6693L61.8454 0.828278Z" fill="#E9B60D"/>
<path opacity="0.9" d="M60.6802 6.66351L52.5117 18.8958H57.1702L60.6802 20.6667V6.66351Z" fill="white" stroke="#D7A606" stroke-width="0.25" stroke-miterlimit="10"/>
<path d="M100.996 11L100.996 35" stroke="#FAFAFA" stroke-linecap="round"/>
<path d="M113.74 25.362H117.366V27H112.102V17.2H113.74V25.362ZM125.654 18.838H120.754V21.288H124.828V22.912H120.754V25.362H125.654V27H119.116V17.2H125.654V18.838ZM132.302 27L131.868 25.866H128.424L128.004 27H126.24L130.146 16.92L134.066 27H132.302ZM130.146 21.05L128.956 24.452H131.336L130.146 21.05ZM139.997 27L138.121 22.912H136.791V27H135.153V17.2H138.415C138.415 17.2 141.691 17.2 141.691 20.056C141.691 21.638 140.683 22.338 139.801 22.66L141.803 27H139.997ZM136.791 18.838V21.288H138.415C138.415 21.288 140.053 21.288 140.053 20.056C140.053 18.838 138.415 18.838 138.415 18.838H136.791ZM151.709 17.2V27H150.057L145.185 20.028V27H143.547V17.2H145.199L150.085 24.172V17.2H151.709Z" fill="white"/>
<path d="M172.64 18.838H167.74V21.288H171.814V22.912H167.74V25.362H172.64V27H166.102V17.2H172.64V18.838ZM173.465 27L176.965 22.1L173.465 17.2H175.467L177.973 20.7L180.465 17.2H182.467L178.967 22.1L182.467 27H180.465L177.973 23.5L175.467 27H173.465ZM187.042 17.2C187.042 17.2 190.318 17.2 190.318 20.07C190.318 22.94 187.042 22.94 187.042 22.94H185.404V27.028H183.766V17.2H187.042ZM187.042 21.302C187.042 21.302 188.68 21.302 188.68 20.07C188.68 18.838 187.042 18.838 187.042 18.838H185.404V21.302H187.042ZM196.843 27L196.409 25.866H192.965L192.545 27H190.781L194.687 16.92L198.607 27H196.843ZM194.687 21.05L193.497 24.452H195.877L194.687 21.05ZM207.87 17.2V27H206.218L201.346 20.028V27H199.708V17.2H201.36L206.246 24.172V17.2H207.87ZM210.098 17.2H211.736C214.116 17.2 217.462 17.746 217.462 22.1C217.462 26.286 214.172 27 211.736 27H210.098V17.2ZM211.736 25.404C211.736 25.404 215.81 25.964 215.81 22.1C215.81 18.18 211.736 18.796 211.736 18.796V25.404Z" fill="white"/>
<path d="M237.058 27L236.624 25.866H233.18L232.76 27H230.996L234.902 16.92L238.822 27H237.058ZM234.902 21.05L233.712 24.452H236.092L234.902 21.05ZM243.198 17.2C243.198 17.2 246.474 17.2 246.474 20.07C246.474 22.94 243.198 22.94 243.198 22.94H241.56V27.028H239.922V17.2H243.198ZM243.198 21.302C243.198 21.302 244.836 21.302 244.836 20.07C244.836 18.838 243.198 18.838 243.198 18.838H241.56V21.302H243.198ZM251.32 17.2C251.32 17.2 254.596 17.2 254.596 20.07C254.596 22.94 251.32 22.94 251.32 22.94H249.682V27.028H248.044V17.2H251.32ZM251.32 21.302C251.32 21.302 252.958 21.302 252.958 20.07C252.958 18.838 251.32 18.838 251.32 18.838H249.682V21.302H251.32ZM257.803 25.362H261.429V27H256.165V17.2H257.803V25.362ZM268.047 17.2H270.049L266.367 22.366V27H264.729V22.366L261.047 17.2H263.049L265.555 20.7L268.047 17.2Z" fill="white"/>
<path d="M284.102 17.2H285.74C288.12 17.2 291.466 17.746 291.466 22.1C291.466 26.286 288.176 27 285.74 27H284.102V17.2ZM285.74 25.404C285.74 25.404 289.814 25.964 289.814 22.1C289.814 18.18 285.74 18.796 285.74 18.796V25.404ZM299.91 18.838H295.01V21.288H299.084V22.912H295.01V25.362H299.91V27H293.372V17.2H299.91V18.838ZM306.558 17.2H308.322L304.402 27.252L300.496 17.2H302.26L304.402 22.982L306.558 17.2ZM315.974 18.838H311.074V21.288H315.148V22.912H311.074V25.362H315.974V27H309.436V17.2H315.974V18.838ZM319.305 25.362H322.931V27H317.667V17.2H319.305V25.362ZM328.544 17.074C334.97 17.074 334.984 27.126 328.544 27.126C322.076 27.126 322.09 17.074 328.544 17.074ZM328.544 25.544C332.786 25.544 332.786 18.67 328.544 18.67C324.316 18.67 324.302 25.544 328.544 25.544ZM338.525 17.2C338.525 17.2 341.801 17.2 341.801 20.07C341.801 22.94 338.525 22.94 338.525 22.94H336.887V27.028H335.249V17.2H338.525ZM338.525 21.302C338.525 21.302 340.163 21.302 340.163 20.07C340.163 18.838 338.525 18.838 338.525 18.838H336.887V21.302H338.525Z" fill="white"/>
<path d="M352.996 11L352.996 35" stroke="#FAFAFA" stroke-linecap="round"/>
</svg>
