<svg width="92" height="75" viewBox="0 0 92 75" fill="none" xmlns="http://www.w3.org/2000/svg">
<path d="M42.5354 73.7113C65.4278 73.3711 83.9388 69.933 83.8808 66.0321C83.8228 62.1311 65.2178 59.2446 42.3254 59.5849C19.433 59.9251 0.921999 63.3632 0.979975 67.2641C1.03795 71.1651 19.6429 74.0515 42.5354 73.7113Z" stroke="#9747FF" stroke-miterlimit="10" stroke-linecap="round" stroke-linejoin="round"/>
<path d="M0.979714 67.2642L41.4284 0.728764L83.8806 66.0321L42.4301 66.6482L41.4316 0.944743" stroke="#9747FF" stroke-miterlimit="10" stroke-linecap="round" stroke-linejoin="round"/>
<path d="M44.7969 33.8274C45.0055 36.4946 45.4839 39.1398 46.2212 41.7111C46.727 40.9575 46.5881 39.9574 46.8031 39.0761C47.018 38.1939 48.0534 37.3374 48.7599 37.907C48.9917 38.0935 49.1091 38.3858 49.2063 38.6674C49.6693 40.0087 49.8994 41.4304 49.8845 42.8498" stroke="#9747FF" stroke-miterlimit="10" stroke-linecap="round" stroke-linejoin="round"/>
<path d="M86.399 62.3724C86.6947 61.7439 87.0179 61.083 87.6003 60.7043C88.1828 60.3256 89.1047 60.382 89.4269 60.9972C89.572 61.2741 89.5699 61.6022 89.5445 61.9136C89.4018 63.6859 88.5831 65.3943 87.2931 66.6166C88.6881 66.5338 90.0939 66.647 91.4576 66.9517" stroke="#9747FF" stroke-miterlimit="10" stroke-linecap="round" stroke-linejoin="round"/>
</svg>
