<svg width="274" height="182" viewBox="0 0 274 182" fill="none" xmlns="http://www.w3.org/2000/svg">
<g clip-path="url(#clip0_3682_3629)">
<path d="M226.88 29.4233H46.8838C42.1759 29.4233 38.3594 33.2259 38.3594 37.9167V144.359C38.3594 149.05 42.1759 152.852 46.8838 152.852H226.88C231.588 152.852 235.405 149.05 235.405 144.359V37.9167C235.405 33.2259 231.588 29.4233 226.88 29.4233Z" fill="white" stroke="#E1E4E5" stroke-width="4"/>
<path fill-rule="evenodd" clip-rule="evenodd" d="M80.2573 69.2191C80.044 69.3337 79.8025 69.386 79.5607 69.3701C79.3188 69.3542 79.0864 69.2706 78.8901 69.129C78.6932 68.987 78.5402 68.7929 78.4485 68.5687C78.3567 68.3445 78.3297 68.0992 78.3707 67.8605L79.3065 62.4439L75.3436 58.6061C75.1718 58.4369 75.0506 58.2233 74.9937 57.9894C74.9368 57.7554 74.9463 57.5103 75.0212 57.2815C75.0956 57.0528 75.2327 56.8494 75.4169 56.6943C75.6011 56.5391 75.8252 56.4383 76.0639 56.4033L81.5424 55.6128L83.9895 50.6803C84.0974 50.464 84.2638 50.282 84.4698 50.1547C84.6758 50.0274 84.9134 49.9598 85.1558 49.9596C85.6496 49.9596 86.1011 50.2387 86.3225 50.6803L88.7696 55.6128L94.2481 56.4033C94.4867 56.4384 94.7108 56.5392 94.895 56.6943C95.0793 56.8495 95.2163 57.0528 95.2908 57.2815C95.3656 57.5103 95.3751 57.7555 95.3181 57.9894C95.2611 58.2234 95.1399 58.4369 94.9681 58.6061L91.0033 62.4418L91.9388 67.8584C91.9803 68.0972 91.9537 68.3428 91.8622 68.5673C91.7706 68.7919 91.6178 68.9863 91.421 69.1287C91.2245 69.2706 90.9918 69.3543 90.7497 69.3703C90.5075 69.3863 90.2658 69.3339 90.0522 69.2191L85.1537 66.6645L80.2573 69.2191ZM106.135 69.2191C105.922 69.3337 105.68 69.386 105.438 69.3701C105.197 69.3542 104.964 69.2706 104.768 69.129C104.571 68.987 104.418 68.7929 104.326 68.5687C104.234 68.3445 104.207 68.0992 104.248 67.8605L105.184 62.4439L101.221 58.6061C101.05 58.4369 100.928 58.2233 100.871 57.9894C100.815 57.7554 100.824 57.5103 100.899 57.2815C100.973 57.0528 101.11 56.8494 101.295 56.6943C101.479 56.5391 101.703 56.4383 101.942 56.4033L107.42 55.6128L109.867 50.6803C109.975 50.464 110.142 50.282 110.348 50.1547C110.554 50.0274 110.791 49.9598 111.034 49.9596C111.527 49.9596 111.979 50.2387 112.2 50.6803L114.647 55.6128L120.126 56.4033C120.364 56.4384 120.589 56.5392 120.773 56.6943C120.957 56.8495 121.094 57.0528 121.169 57.2815C121.243 57.5103 121.253 57.7555 121.196 57.9894C121.139 58.2234 121.018 58.4369 120.846 58.6061L116.881 62.4418L117.817 67.8584C117.858 68.0972 117.831 68.3428 117.74 68.5673C117.648 68.7919 117.496 68.9863 117.299 69.1287C117.102 69.2706 116.87 69.3543 116.627 69.3703C116.385 69.3863 116.144 69.3339 115.93 69.2191L111.031 66.6645L106.135 69.2191ZM132.013 69.2191C131.8 69.3337 131.558 69.386 131.316 69.3701C131.074 69.3542 130.842 69.2706 130.646 69.129C130.449 68.987 130.296 68.7929 130.204 68.5687C130.112 68.3445 130.085 68.0992 130.126 67.8605L131.062 62.4439L127.099 58.6061C126.927 58.4369 126.806 58.2233 126.749 57.9894C126.692 57.7554 126.702 57.5103 126.777 57.2815C126.851 57.0528 126.988 56.8494 127.172 56.6943C127.357 56.5391 127.581 56.4383 127.819 56.4033L133.298 55.6128L135.745 50.6803C135.853 50.464 136.019 50.282 136.225 50.1547C136.431 50.0274 136.669 49.9598 136.911 49.9596C137.405 49.9596 137.857 50.2387 138.078 50.6803L140.525 55.6128L146.004 56.4033C146.242 56.4384 146.466 56.5392 146.651 56.6943C146.835 56.8495 146.972 57.0528 147.046 57.2815C147.121 57.5103 147.131 57.7555 147.074 57.9894C147.017 58.2234 146.895 58.4369 146.724 58.6061L142.759 62.4418L143.694 67.8584C143.736 68.0972 143.709 68.3428 143.618 68.5673C143.526 68.7919 143.373 68.9863 143.177 69.1287C142.98 69.2706 142.747 69.3543 142.505 69.3703C142.263 69.3863 142.021 69.3339 141.808 69.2191L136.909 66.6645L132.013 69.2191ZM157.891 69.2191C157.677 69.3337 157.436 69.386 157.194 69.3701C156.952 69.3542 156.72 69.2706 156.523 69.129C156.327 68.987 156.174 68.7929 156.082 68.5687C155.99 68.3445 155.963 68.0992 156.004 67.8605L156.94 62.4439L152.977 58.6061C152.805 58.4369 152.684 58.2233 152.627 57.9894C152.57 57.7554 152.58 57.5103 152.655 57.2815C152.729 57.0528 152.866 56.8494 153.05 56.6943C153.234 56.5391 153.459 56.4383 153.697 56.4033L159.176 55.6128L161.623 50.6803C161.731 50.464 161.897 50.282 162.103 50.1547C162.309 50.0274 162.547 49.9598 162.789 49.9596C163.283 49.9596 163.734 50.2387 163.956 50.6803L166.403 55.6128L171.881 56.4033C172.12 56.4384 172.344 56.5392 172.528 56.6943C172.713 56.8495 172.85 57.0528 172.924 57.2815C172.999 57.5103 173.008 57.7555 172.951 57.9894C172.894 58.2234 172.773 58.4369 172.601 58.6061L168.637 62.4418L169.572 67.8584C169.614 68.0972 169.587 68.3428 169.495 68.5673C169.404 68.7919 169.251 68.9863 169.054 69.1287C168.858 69.2706 168.625 69.3543 168.383 69.3703C168.141 69.3863 167.899 69.3339 167.686 69.2191L162.787 66.6645L157.891 69.2191ZM183.768 69.2191C183.555 69.3337 183.314 69.386 183.072 69.3701C182.83 69.3542 182.598 69.2706 182.401 69.129C182.204 68.987 182.051 68.7929 181.96 68.5687C181.868 68.3445 181.841 68.0992 181.882 67.8605L182.818 62.4439L178.855 58.6061C178.683 58.4369 178.562 58.2233 178.505 57.9894C178.448 57.7554 178.457 57.5103 178.532 57.2815C178.607 57.0528 178.744 56.8494 178.928 56.6943C179.112 56.5391 179.336 56.4383 179.575 56.4033L185.053 55.6128L187.501 50.6803C187.609 50.464 187.775 50.282 187.981 50.1547C188.187 50.0274 188.424 49.9598 188.667 49.9596C189.161 49.9596 189.612 50.2387 189.834 50.6803L192.281 55.6128L197.759 56.4033C197.998 56.4384 198.222 56.5392 198.406 56.6943C198.59 56.8495 198.727 57.0528 198.802 57.2815C198.877 57.5103 198.886 57.7555 198.829 57.9894C198.772 58.2234 198.651 58.4369 198.479 58.6061L194.514 62.4418L195.45 67.8584C195.491 68.0972 195.465 68.3428 195.373 68.5673C195.282 68.7919 195.129 68.9863 194.932 69.1287C194.736 69.2706 194.503 69.3543 194.261 69.3703C194.019 69.3863 193.777 69.3339 193.563 69.2191L188.665 66.6645L183.768 69.2191Z" fill="#39900E"/>
<path d="M57.2352 41.6586C57.2352 39.9076 55.8105 38.4882 54.0531 38.4882C52.2957 38.4882 50.8711 39.9076 50.8711 41.6586C50.8711 43.4096 52.2957 44.829 54.0531 44.829C55.8105 44.829 57.2352 43.4096 57.2352 41.6586Z" fill="white" stroke="#E1E4E5" stroke-width="4"/>
<path d="M52.1235 113.356C53.1324 113.356 53.9502 114.171 53.9502 115.176C53.9502 116.181 53.1324 116.996 52.1235 116.996C51.1147 116.996 50.2969 116.181 50.2969 115.176C50.2969 114.171 51.1147 113.356 52.1235 113.356Z" fill="#39900E"/>
<path d="M204.363 104.634C203.254 104.634 202.355 103.738 202.355 102.633C202.355 101.528 203.254 100.632 204.363 100.632C205.472 100.632 206.371 101.528 206.371 102.633C206.371 103.738 205.472 104.634 204.363 104.634Z" fill="#39900E"/>
<path d="M147.108 115.783C147.949 115.783 148.63 115.104 148.63 114.266C148.63 113.429 147.949 112.75 147.108 112.75C146.267 112.75 145.586 113.429 145.586 114.266C145.586 115.104 146.267 115.783 147.108 115.783Z" fill="#39900E"/>
<path d="M149.392 139.55C148.467 139.55 147.718 140.297 147.718 141.219C147.718 142.14 148.467 142.887 149.392 142.887C150.317 142.887 151.066 142.14 151.066 141.219C151.066 140.297 150.317 139.55 149.392 139.55Z" fill="#39900E"/>
<path d="M62.4744 123.67C61.2974 123.67 60.3432 122.719 60.3432 121.546C60.3432 120.374 61.2974 119.423 62.4744 119.423C63.6513 119.423 64.6055 120.374 64.6055 121.546C64.6055 122.719 63.6513 123.67 62.4744 123.67Z" fill="#E1E4E5"/>
<path d="M225.032 37.6769L219.333 43.3555C219.125 43.5624 219.125 43.8977 219.333 44.1044C219.54 44.3112 219.877 44.3112 220.084 44.1043L225.784 38.4257C225.991 38.2189 225.991 37.8836 225.784 37.6768C225.576 37.4701 225.24 37.4701 225.032 37.6769Z" fill="#E1E4E5"/>
<path d="M224.473 41.7428L222.829 43.3804C222.621 43.5873 222.621 43.9226 222.829 44.1293C223.036 44.3361 223.373 44.3361 223.581 44.1292L225.224 42.4916C225.432 42.2848 225.432 41.9495 225.224 41.7427C225.017 41.5359 224.68 41.536 224.473 41.7428Z" fill="#E1E4E5"/>
<path d="M49.2521 134.701L44.1527 139.782C43.967 139.967 43.967 140.267 44.1527 140.452C44.3384 140.637 44.6395 140.637 44.8252 140.452L49.9246 135.371C50.1103 135.186 50.1103 134.886 49.9246 134.701C49.7389 134.516 49.4378 134.516 49.2521 134.701Z" fill="#E1E4E5"/>
<path d="M48.7521 138.339L47.2816 139.804C47.0959 139.989 47.0959 140.289 47.2816 140.474C47.4673 140.659 47.7684 140.659 47.9541 140.474L49.4246 139.009C49.6103 138.824 49.6103 138.524 49.4246 138.339C49.2389 138.154 48.9378 138.154 48.7521 138.339Z" fill="#E1E4E5"/>
<path d="M53.1269 65.7305L58.1895 60.6863C58.374 60.5026 58.374 60.2047 58.1897 60.0211C58.0053 59.8374 57.7064 59.8374 57.522 60.0212L52.4594 65.0653C52.275 65.2491 52.2749 65.5469 52.4593 65.7306C52.6436 65.9142 52.9425 65.9142 53.1269 65.7305Z" fill="#E1E4E5"/>
<path d="M53.6202 62.1188L55.0802 60.6642C55.2646 60.4804 55.2646 60.1826 55.0803 59.9989C54.8959 59.8152 54.597 59.8153 54.4126 59.999L52.9526 61.4537C52.7682 61.6374 52.7682 61.9353 52.9525 62.1189C53.1369 62.3026 53.4358 62.3025 53.6202 62.1188Z" fill="#E1E4E5"/>
<path d="M220.329 141.546L227.269 134.631C227.522 134.379 227.522 133.971 227.269 133.719C227.016 133.467 226.607 133.467 226.354 133.719L219.414 140.634C219.161 140.886 219.161 141.294 219.414 141.546C219.666 141.798 220.076 141.797 220.329 141.546Z" fill="#E1E4E5"/>
<path d="M221.006 136.595L223.007 134.601C223.26 134.349 223.26 133.941 223.007 133.689C222.755 133.437 222.345 133.437 222.092 133.689L220.091 135.683C219.838 135.935 219.838 136.343 220.091 136.595C220.343 136.847 220.753 136.847 221.006 136.595Z" fill="#E1E4E5"/>
<path fill-rule="evenodd" clip-rule="evenodd" d="M206.657 81.1293H207.763C208.031 81.1293 208.246 81.3461 208.246 81.6103V82.7123C208.246 82.9787 208.028 83.1934 207.763 83.1934H206.657C206.529 83.193 206.407 83.1421 206.316 83.052C206.226 82.9619 206.175 82.8398 206.174 82.7123V81.6103C206.174 81.5471 206.186 81.4845 206.211 81.4261C206.235 81.3677 206.27 81.3146 206.315 81.2699C206.36 81.2252 206.413 81.1898 206.472 81.1656C206.531 81.1415 206.594 81.1291 206.657 81.1293ZM210.492 81.1293H211.598C211.863 81.1293 212.081 81.3461 212.081 81.6103V82.7123C212.081 82.9787 211.863 83.1934 211.598 83.1934H210.492C210.364 83.193 210.242 83.1421 210.151 83.052C210.061 82.9619 210.01 82.8398 210.009 82.7123V81.6103C210.009 81.3461 210.227 81.1293 210.492 81.1293ZM214.33 81.1293H215.436C215.701 81.1293 215.918 81.3461 215.918 81.6103V82.7123C215.918 82.9787 215.701 83.1934 215.436 83.1934H214.33C214.202 83.193 214.079 83.1421 213.989 83.052C213.898 82.9619 213.847 82.8398 213.847 82.7123V81.6103C213.847 81.5471 213.859 81.4845 213.883 81.4261C213.907 81.3677 213.943 81.3146 213.988 81.2699C214.033 81.2252 214.086 81.1898 214.145 81.1656C214.203 81.1415 214.266 81.1291 214.33 81.1293ZM218.164 81.1293H219.27C219.536 81.1293 219.753 81.3461 219.753 81.6103V82.7123C219.753 82.9787 219.536 83.1934 219.27 83.1934H218.164C218.036 83.1934 217.913 83.1427 217.822 83.0526C217.731 82.9624 217.68 82.8401 217.679 82.7123V81.6103C217.681 81.4828 217.732 81.3609 217.823 81.2709C217.914 81.1809 218.036 81.13 218.164 81.1293ZM222 81.1293H223.106C223.373 81.1293 223.591 81.3461 223.591 81.6103V82.7123C223.591 82.9787 223.373 83.1934 223.106 83.1934H222C221.872 83.193 221.749 83.1421 221.659 83.052C221.568 82.9619 221.517 82.8398 221.517 82.7123V81.6103C221.517 81.3461 221.735 81.1293 222 81.1293ZM210.633 85.2958H211.739C212.004 85.2958 212.222 85.5127 212.222 85.7769V86.8811C212.222 87.1456 212.004 87.3621 211.739 87.3621H210.633C210.505 87.3621 210.382 87.3113 210.291 87.2211C210.201 87.1309 210.15 87.0086 210.15 86.8811V85.779C210.15 85.7157 210.162 85.6528 210.186 85.5942C210.21 85.5355 210.245 85.4822 210.29 85.4373C210.335 85.3924 210.389 85.3568 210.447 85.3325C210.506 85.3082 210.569 85.2958 210.633 85.2958ZM214.467 85.2958H215.574C215.839 85.2958 216.056 85.5127 216.056 85.7769V86.8811C216.056 87.0085 216.005 87.1306 215.915 87.2208C215.824 87.3109 215.702 87.3617 215.574 87.3621H214.467C214.34 87.3617 214.217 87.3109 214.127 87.2208C214.036 87.1306 213.985 87.0085 213.985 86.8811V85.779C213.985 85.7157 213.997 85.6529 214.021 85.5942C214.045 85.5356 214.08 85.4822 214.125 85.4373C214.17 85.3924 214.223 85.3568 214.282 85.3325C214.341 85.3082 214.404 85.2958 214.467 85.2958ZM218.303 85.2958H219.409C219.677 85.2958 219.894 85.5127 219.894 85.7769V86.8811C219.894 87.1456 219.677 87.3621 219.409 87.3621H218.303C218.175 87.3617 218.052 87.3108 217.962 87.2207C217.872 87.1306 217.821 87.0085 217.82 86.8811V85.779C217.82 85.5127 218.038 85.2958 218.303 85.2958ZM214.33 76.653H215.436C215.701 76.653 215.918 76.8698 215.918 77.134V78.236C215.918 78.5027 215.701 78.7171 215.436 78.7171H214.33C214.202 78.7167 214.079 78.6658 213.989 78.5757C213.898 78.4856 213.847 78.3635 213.847 78.236V77.134C213.847 77.0708 213.859 77.0082 213.883 76.9498C213.907 76.8914 213.943 76.8383 213.988 76.7936C214.033 76.7489 214.086 76.7135 214.145 76.6893C214.203 76.6652 214.266 76.6528 214.33 76.653ZM218.164 76.653H219.27C219.536 76.653 219.753 76.8698 219.753 77.134V78.236C219.753 78.5027 219.536 78.7171 219.27 78.7171H218.164C218.036 78.7171 217.913 78.6665 217.822 78.5764C217.731 78.4862 217.68 78.3638 217.679 78.236V77.134C217.681 77.0065 217.732 76.8846 217.823 76.7946C217.914 76.7046 218.036 76.6537 218.164 76.653ZM62.4675 140.665H63.144C63.3078 140.665 63.4396 140.798 63.4396 140.959V141.633C63.4395 141.711 63.4083 141.786 63.3529 141.842C63.2975 141.897 63.2223 141.928 63.144 141.928H62.4675C62.3892 141.928 62.3142 141.896 62.2588 141.841C62.2034 141.786 62.1722 141.711 62.1719 141.633V140.959C62.1718 140.921 62.1795 140.882 62.1943 140.847C62.2091 140.811 62.2309 140.778 62.2584 140.751C62.2858 140.724 62.3184 140.702 62.3543 140.687C62.3902 140.672 62.4287 140.665 62.4675 140.665ZM64.8135 140.665H65.4903C65.6526 140.665 65.7856 140.798 65.7856 140.959V141.633C65.7856 141.711 65.7545 141.786 65.6992 141.841C65.6438 141.897 65.5687 141.928 65.4903 141.928H64.8135C64.7353 141.928 64.6603 141.896 64.605 141.841C64.5497 141.786 64.5185 141.711 64.5182 141.633V140.959C64.5182 140.798 64.6513 140.665 64.8135 140.665ZM67.1614 140.665H67.8382C68.0005 140.665 68.1335 140.798 68.1335 140.959V141.633C68.1335 141.711 68.1024 141.786 68.047 141.841C67.9917 141.897 67.9165 141.928 67.8382 141.928H67.1614C67.0831 141.928 67.0082 141.896 66.9529 141.841C66.8975 141.786 66.8663 141.711 66.8661 141.633V140.959C66.866 140.921 66.8735 140.882 66.8883 140.847C66.9031 140.811 66.9249 140.778 66.9523 140.751C66.9798 140.724 67.0124 140.702 67.0482 140.687C67.0841 140.672 67.1226 140.665 67.1614 140.665ZM69.5075 140.665H70.1842C70.3465 140.665 70.4796 140.798 70.4796 140.959V141.633C70.4796 141.711 70.4485 141.786 70.3931 141.841C70.3377 141.897 70.2626 141.928 70.1842 141.928H69.5075C69.429 141.928 69.3538 141.897 69.2982 141.842C69.2426 141.786 69.2113 141.712 69.2109 141.633V140.959C69.2117 140.881 69.2433 140.807 69.2987 140.752C69.3542 140.697 69.4291 140.665 69.5075 140.665ZM71.8541 140.665H72.5309C72.6944 140.665 72.8274 140.798 72.8274 140.959V141.633C72.8274 141.672 72.8197 141.71 72.8048 141.746C72.7898 141.782 72.768 141.814 72.7404 141.842C72.7129 141.869 72.6802 141.891 72.6443 141.906C72.6083 141.92 72.5698 141.928 72.5309 141.928H71.8541C71.7758 141.928 71.7009 141.896 71.6456 141.841C71.5902 141.786 71.5591 141.711 71.5588 141.633V140.959C71.5588 140.798 71.6919 140.665 71.8541 140.665ZM64.8997 143.214H65.5765C65.7388 143.214 65.8718 143.347 65.8718 143.508V144.184C65.8718 144.346 65.7388 144.478 65.5765 144.478H64.8997C64.8214 144.478 64.7463 144.447 64.6909 144.392C64.6355 144.337 64.6044 144.262 64.6044 144.184V143.51C64.6041 143.471 64.6116 143.433 64.6263 143.397C64.6411 143.361 64.6628 143.328 64.6903 143.301C64.7177 143.273 64.7503 143.251 64.7863 143.236C64.8222 143.222 64.8608 143.214 64.8997 143.214ZM67.2457 143.214H67.9225C68.0848 143.214 68.2178 143.347 68.2178 143.508V144.184C68.2178 144.346 68.0848 144.478 67.9225 144.478H67.2457C67.1675 144.478 67.0925 144.447 67.0372 144.392C66.9819 144.337 66.9507 144.262 66.9504 144.184V143.51C66.9502 143.471 66.9577 143.433 66.9725 143.397C66.9872 143.361 67.0089 143.328 67.0364 143.301C67.0638 143.273 67.0965 143.251 67.1324 143.237C67.1683 143.222 67.2068 143.214 67.2457 143.214ZM69.5924 143.214H70.2689C70.4327 143.214 70.5657 143.347 70.5657 143.508V144.184C70.5657 144.346 70.4327 144.478 70.2689 144.478H69.5924C69.5141 144.478 69.4391 144.447 69.3837 144.392C69.3284 144.337 69.2971 144.262 69.2968 144.184V143.51C69.2968 143.347 69.4301 143.214 69.5924 143.214ZM67.1614 137.926H67.8382C68.0005 137.926 68.1335 138.059 68.1335 138.221V138.895C68.1335 138.973 68.1024 139.048 68.047 139.103C67.9917 139.158 67.9165 139.189 67.8382 139.189H67.1614C67.0831 139.189 67.0082 139.158 66.9529 139.103C66.8975 139.048 66.8663 138.973 66.8661 138.895V138.221C66.866 138.182 66.8735 138.144 66.8883 138.108C66.9031 138.072 66.9249 138.04 66.9523 138.012C66.9798 137.985 67.0124 137.963 67.0482 137.949C67.0841 137.934 67.1226 137.926 67.1614 137.926ZM69.5075 137.926H70.1842C70.3465 137.926 70.4796 138.059 70.4796 138.221V138.895C70.4796 138.973 70.4485 139.048 70.3931 139.103C70.3377 139.158 70.2626 139.189 70.1842 139.189H69.5075C69.429 139.189 69.3538 139.158 69.2982 139.103C69.2426 139.048 69.2113 138.973 69.2109 138.895V138.221C69.2117 138.143 69.2433 138.068 69.2987 138.013C69.3542 137.958 69.4291 137.927 69.5075 137.926Z" fill="#E1E4E5"/>
<path d="M102.51 80.5963H64.4548C57.4769 80.5963 51.8203 86.2322 51.8203 93.1846C51.8203 100.137 57.4769 105.773 64.4548 105.773H102.51C109.488 105.773 115.145 100.137 115.145 93.1846C115.145 86.2322 109.488 80.5963 102.51 80.5963Z" fill="white" stroke="#E1E4E5" stroke-width="4"/>
<path d="M74.7434 93.1485C74.7434 87.5799 70.2126 83.0657 64.6236 83.0657C59.0347 83.0657 54.5039 87.5799 54.5039 93.1485C54.5039 98.7171 59.0347 103.231 64.6236 103.231C70.2126 103.231 74.7434 98.7171 74.7434 93.1485Z" fill="#39900E"/>
<path fill-rule="evenodd" clip-rule="evenodd" d="M69.2239 97.3779V98.0522C69.2239 98.4244 68.9246 98.7265 68.5562 98.7265H60.543C60.1743 98.7265 59.875 98.4244 59.875 98.0522V97.3673C59.875 95.327 62.1842 94.0015 64.5494 94.0015C66.9147 94.0015 69.2239 95.3276 69.2239 97.3673M66.226 88.0789C66.4536 88.2966 66.6353 88.5573 66.7605 88.8459C66.8856 89.1344 66.9518 89.4449 66.955 89.7593C66.9582 90.0736 66.8984 90.3854 66.7791 90.6764C66.6599 90.9674 66.4835 91.2318 66.2604 91.4541C66.0373 91.6763 65.7719 91.852 65.4798 91.9708C65.1877 92.0895 64.8748 92.149 64.5593 92.1458C64.2438 92.1425 63.9321 92.0766 63.6426 91.9518C63.353 91.8271 63.0913 91.646 62.8729 91.4192C62.4432 90.9731 62.2062 90.3771 62.2126 89.7588C62.219 89.1406 62.4683 88.5496 62.9071 88.1124C63.346 87.6753 63.9392 87.427 64.5597 87.4207C65.1802 87.4144 65.7784 87.6507 66.226 88.0789Z" fill="white"/>
<path d="M104.029 86.3596H78.1515C77.563 86.3596 77.0859 86.8349 77.0859 87.4213C77.0859 88.0076 77.563 88.483 78.1515 88.483H104.029C104.618 88.483 105.095 88.0076 105.095 87.4213C105.095 86.8349 104.618 86.3596 104.029 86.3596Z" fill="#E1E4E5"/>
<path d="M103.877 91.8196H78.3037C77.6312 91.8196 77.0859 92.3628 77.0859 93.0329C77.0859 93.703 77.6312 94.2462 78.3037 94.2462H103.877C104.55 94.2462 105.095 93.703 105.095 93.0329C105.095 92.3628 104.55 91.8196 103.877 91.8196Z" fill="#E1E4E5"/>
<path d="M104.029 97.5829H78.1515C77.563 97.5829 77.0859 98.0583 77.0859 98.6446C77.0859 99.231 77.563 99.7063 78.1515 99.7063H104.029C104.618 99.7063 105.095 99.231 105.095 98.6446C105.095 98.0583 104.618 97.5829 104.029 97.5829Z" fill="#E1E4E5"/>
<path d="M127.776 112.75H89.7204C82.7426 112.75 77.0859 118.386 77.0859 125.338C77.0859 132.29 82.7426 137.926 89.7204 137.926H127.776C134.754 137.926 140.41 132.29 140.41 125.338C140.41 118.386 134.754 112.75 127.776 112.75Z" fill="white" stroke="#E1E4E5" stroke-width="4"/>
<path d="M100.013 125.302C100.013 119.733 95.4821 115.219 89.8932 115.219C84.3042 115.219 79.7734 119.733 79.7734 125.302C79.7734 130.87 84.3042 135.385 89.8932 135.385C95.4821 135.385 100.013 130.87 100.013 125.302Z" fill="#39900E"/>
<path fill-rule="evenodd" clip-rule="evenodd" d="M94.4895 129.531V130.206C94.4895 130.578 94.1902 130.88 93.8219 130.88H85.8086C85.4399 130.88 85.1406 130.578 85.1406 130.206V129.521C85.1406 127.48 87.4498 126.155 89.8151 126.155C92.1803 126.155 94.4895 127.481 94.4895 129.521M91.4916 120.232C91.9363 120.675 92.1862 121.276 92.1862 121.902C92.1862 122.529 91.9365 123.13 91.4918 123.573C91.0471 124.016 90.444 124.265 89.8152 124.265C89.1863 124.265 88.5832 124.016 88.1385 123.573C87.9183 123.354 87.7436 123.093 87.6245 122.807C87.5053 122.52 87.4439 122.213 87.4439 121.903C87.4439 121.592 87.5052 121.285 87.6244 120.999C87.7435 120.712 87.9182 120.451 88.1383 120.232C88.3585 120.013 88.6199 119.839 88.9076 119.72C89.1952 119.601 89.5036 119.54 89.815 119.54C90.1263 119.54 90.4347 119.601 90.7224 119.72C91.01 119.839 91.2714 120.013 91.4916 120.232Z" fill="white"/>
<path d="M129.299 118.513H103.421C102.833 118.513 102.355 118.988 102.355 119.575C102.355 120.161 102.833 120.636 103.421 120.636H129.299C129.887 120.636 130.364 120.161 130.364 119.575C130.364 118.988 129.887 118.513 129.299 118.513Z" fill="#E1E4E5"/>
<path d="M129.147 123.973H103.573C102.901 123.973 102.355 124.516 102.355 125.186C102.355 125.856 102.901 126.4 103.573 126.4H129.147C129.819 126.4 130.364 125.856 130.364 125.186C130.364 124.516 129.819 123.973 129.147 123.973Z" fill="#E1E4E5"/>
<path d="M129.299 129.736H103.421C102.833 129.736 102.355 130.212 102.355 130.798C102.355 131.384 102.833 131.86 103.421 131.86H129.299C129.887 131.86 130.364 131.384 130.364 130.798C130.364 130.212 129.887 129.736 129.299 129.736Z" fill="#E1E4E5"/>
<path d="M206.323 112.75H168.267C161.289 112.75 155.633 118.386 155.633 125.338C155.633 132.29 161.289 137.926 168.267 137.926H206.323C213.301 137.926 218.957 132.29 218.957 125.338C218.957 118.386 213.301 112.75 206.323 112.75Z" fill="white" stroke="#E1E4E5" stroke-width="4"/>
<path d="M178.56 125.302C178.56 119.733 174.029 115.219 168.44 115.219C162.851 115.219 158.32 119.733 158.32 125.302C158.32 130.87 162.851 135.385 168.44 135.385C174.029 135.385 178.56 130.87 178.56 125.302Z" fill="#39900E"/>
<path fill-rule="evenodd" clip-rule="evenodd" d="M173.036 129.531V130.206C173.036 130.578 172.737 130.88 172.369 130.88H164.355C163.987 130.88 163.688 130.578 163.688 130.206V129.521C163.688 127.48 165.997 126.155 168.362 126.155C170.727 126.155 173.036 127.481 173.036 129.521M170.039 120.232C170.259 120.451 170.433 120.712 170.553 120.998C170.672 121.285 170.733 121.592 170.733 121.902C170.733 122.213 170.672 122.52 170.553 122.807C170.433 123.093 170.259 123.354 170.039 123.573C169.819 123.792 169.557 123.966 169.269 124.085C168.982 124.204 168.673 124.265 168.362 124.265C168.051 124.265 167.742 124.204 167.455 124.085C167.167 123.967 166.906 123.793 166.685 123.573C166.241 123.13 165.991 122.529 165.991 121.903C165.991 121.276 166.241 120.675 166.685 120.232C167.13 119.789 167.733 119.54 168.362 119.54C168.991 119.54 169.594 119.789 170.039 120.232Z" fill="white"/>
<path d="M207.846 118.513H181.968C181.379 118.513 180.902 118.988 180.902 119.575C180.902 120.161 181.379 120.636 181.968 120.636H207.846C208.434 120.636 208.911 120.161 208.911 119.575C208.911 118.988 208.434 118.513 207.846 118.513Z" fill="#E1E4E5"/>
<path d="M207.693 123.973H182.12C181.448 123.973 180.902 124.516 180.902 125.186C180.902 125.856 181.448 126.4 182.12 126.4H207.693C208.366 126.4 208.911 125.856 208.911 125.186C208.911 124.516 208.366 123.973 207.693 123.973Z" fill="#E1E4E5"/>
<path d="M207.846 129.736H181.968C181.379 129.736 180.902 130.212 180.902 130.798C180.902 131.384 181.379 131.86 181.968 131.86H207.846C208.434 131.86 208.911 131.384 208.911 130.798C208.911 130.212 208.434 129.736 207.846 129.736Z" fill="#E1E4E5"/>
<path d="M181.057 80.5963H143.002C136.024 80.5963 130.367 86.2322 130.367 93.1846C130.367 100.137 136.024 105.773 143.002 105.773H181.057C188.035 105.773 193.692 100.137 193.692 93.1846C193.692 86.2322 188.035 80.5963 181.057 80.5963Z" fill="white" stroke="#E1E4E5" stroke-width="4"/>
<path d="M153.29 93.1485C153.29 87.5799 148.759 83.0657 143.171 83.0657C137.582 83.0657 133.051 87.5799 133.051 93.1485C133.051 98.7171 137.582 103.231 143.171 103.231C148.759 103.231 153.29 98.7171 153.29 93.1485Z" fill="#39900E"/>
<path fill-rule="evenodd" clip-rule="evenodd" d="M147.771 97.3779V98.0522C147.771 98.4244 147.471 98.7265 147.103 98.7265H139.09C138.721 98.7265 138.422 98.4244 138.422 98.0522V97.3673C138.422 95.327 140.731 94.0015 143.096 94.0015C145.462 94.0015 147.771 95.3276 147.771 97.3673M144.773 88.0789C145 88.2966 145.182 88.5573 145.307 88.8459C145.433 89.1344 145.499 89.4449 145.502 89.7593C145.505 90.0736 145.445 90.3854 145.326 90.6764C145.207 90.9674 145.03 91.2318 144.807 91.4541C144.584 91.6763 144.319 91.852 144.027 91.9708C143.735 92.0895 143.422 92.149 143.106 92.1458C142.791 92.1425 142.479 92.0766 142.189 91.9518C141.9 91.8271 141.638 91.646 141.42 91.4192C140.99 90.9731 140.753 90.3771 140.759 89.7588C140.766 89.1406 141.015 88.5496 141.454 88.1124C141.893 87.6753 142.486 87.427 143.107 87.4207C143.727 87.4144 144.325 87.6507 144.773 88.0789Z" fill="white"/>
<path d="M182.576 86.3596H156.698C156.11 86.3596 155.633 86.8349 155.633 87.4213C155.633 88.0076 156.11 88.483 156.698 88.483H182.576C183.165 88.483 183.642 88.0076 183.642 87.4213C183.642 86.8349 183.165 86.3596 182.576 86.3596Z" fill="#E1E4E5"/>
<path d="M182.424 91.8196H156.851C156.178 91.8196 155.633 92.3628 155.633 93.0329C155.633 93.703 156.178 94.2462 156.851 94.2462H182.424C183.096 94.2462 183.642 93.703 183.642 93.0329C183.642 92.3628 183.096 91.8196 182.424 91.8196Z" fill="#E1E4E5"/>
<path d="M182.576 97.5829H156.698C156.11 97.5829 155.633 98.0583 155.633 98.6446C155.633 99.231 156.11 99.7063 156.698 99.7063H182.576C183.165 99.7063 183.642 99.231 183.642 98.6446C183.642 98.0583 183.165 97.5829 182.576 97.5829Z" fill="#E1E4E5"/>
</g>
<defs>
<clipPath id="clip0_3682_3629">
<rect width="274" height="182" fill="white"/>
</clipPath>
</defs>
</svg>
