<svg width="75" height="72" viewBox="0 0 75 72" fill="none" xmlns="http://www.w3.org/2000/svg">
<path d="M18.707 32.5026L26.1111 25.2073L38.717 22.9734L37.4709 29.5709L20.4289 34.809L19.3278 34.3332L18.707 32.5026Z" fill="#F7941D"/>
<path d="M27.3939 27.0787L19.3555 34.3831L25.2688 37.265L34.2452 32.6839V30.5225L36.0803 25.5743L27.3939 27.0787ZM46.4161 39.9429L42.5328 41.6286L38.867 49.3997C38.867 49.3997 42.0933 56.5454 42.2383 56.5454C42.3833 56.5454 44.2184 56.6904 44.2184 56.6904L50.7434 49.3951L52.3928 36.9342L46.4161 39.9429Z" fill="#7B4A0E"/>
<path d="M42.6033 45.6932C42.6033 45.6932 44.7647 45.2537 46.3053 44.5196C47.8459 43.7855 49.7491 42.689 49.7491 42.689L49.0513 48.7744L42.2317 56.5365C42.2317 56.5365 41.9644 56.2057 40.8316 53.7407C39.9298 51.7741 39.6172 51.0718 39.6172 51.0718L42.6033 45.6932Z" fill="#F7941D"/>
<path d="M31.3106 36.549C31.3106 36.549 28.7097 36.3315 25.8595 39.9339C23.2586 43.2236 22.0397 48.5795 21.5684 49.957C21.0972 51.3345 19.9689 51.6154 20.345 52.2453C20.7211 52.8751 22.3478 52.8389 24.3551 52.5897C26.3625 52.3404 28.0843 51.7106 28.0843 51.7106C28.0843 51.7106 27.9983 51.9281 27.7083 52.3993C27.604 52.567 27.2415 52.8072 27.2687 53.0564C27.3322 53.65 32.4162 53.6636 36.4762 49.4858C40.8625 44.9772 38.7328 41.2797 38.7328 41.2797L31.3106 36.549Z" fill="#F7D74D"/>
<path d="M32.0953 38.647C32.0953 38.647 29.2905 38.7965 26.9705 42.3988C24.6505 46.0012 23.5721 50.1745 23.7941 50.4554C24.0116 50.7363 28.3344 49.1731 29.3721 49.4857C30.0835 49.7032 29.7164 50.4237 29.9067 50.614C30.0653 50.7726 31.9413 51.0399 34.9772 47.7503C38.0177 44.4606 37.2972 39.8387 37.2972 39.8387L32.0953 38.647Z" fill="#FBF0B4"/>
<path d="M33.473 33.7306C33.473 33.7306 32.0638 34.9857 31.5608 35.7062C31.0579 36.4267 31.0579 36.4901 31.0896 36.7076C31.1213 36.9251 31.6424 39.3131 33.8129 41.4065C36.4772 43.9757 38.8561 44.3201 39.2005 44.3201C39.5449 44.3201 41.8332 41.7509 41.8332 41.7509L33.473 33.7306Z" fill="#858585"/>
<path d="M39.7031 41.3432C39.7031 41.3432 41.9869 42.843 45.8158 41.5561C51.0494 39.798 54.8873 35.8649 59.6406 30.8986C64.2262 26.1046 68.0733 20.155 68.0733 20.155L65.3772 11.1243L39.7031 41.3432Z" fill="#5E7020"/>
<path d="M47.8086 36.3995L48.4384 34.442L50.0153 34.664C50.0153 34.664 51.2161 35.2305 52.0997 35.6428C52.9833 36.0551 54.1206 36.3678 54.1206 36.3678L51.8777 38.2619C51.8777 38.2619 50.6542 37.7997 49.7616 37.41C48.7556 36.9705 47.8086 36.3995 47.8086 36.3995Z" fill="#3F545F"/>
<path d="M55.2092 7.31348C55.2092 7.31348 50.8502 9.84191 44.6016 15.7552C38.9692 21.0839 34.796 25.9052 33.7855 30.006C32.9427 33.4407 33.3913 35.525 35.308 37.7771C37.3335 40.1605 39.7078 41.3432 39.7078 41.3432C39.7078 41.3432 41.4932 41.3704 48.9425 35.6383C58.2361 28.4835 65.681 16.5029 65.681 16.5029L55.2092 7.31348Z" fill="#B1C663"/>
<path d="M64.2063 18.9588C64.2063 18.9588 60.4137 17.3411 57.7085 13.5666C55.0215 9.81923 55.2345 7.28626 55.2345 7.28626C55.2345 7.28626 57.482 5.52361 62.5343 3.5072C65.9327 2.15236 70.5591 1.45908 72.0816 2.58736C73.6041 3.71564 71.0395 9.37517 71.0395 9.37517L66.3677 18.4195L64.2063 18.9588Z" fill="#F7941D"/>
<path d="M47.8878 36.4312C47.8878 36.4312 44.6117 34.7592 42.5273 32.3803C38.5852 27.8898 37.7695 22.9598 37.7695 22.9598L39.7497 20.6353C39.7497 20.6353 40.2436 25.8734 44.4713 30.4001C47.2263 33.3499 50.1036 34.7003 50.1036 34.7003C50.1036 34.7003 49.5281 35.1851 48.9119 35.6563C48.5177 35.9599 47.8878 36.4312 47.8878 36.4312Z" fill="url(#paint0_linear_3682_4935)"/>
<path d="M68.0722 20.1549C68.0722 20.1549 70.0388 17.7851 71.9011 12.4428C74.502 4.99338 72.2364 2.73682 72.2364 2.73682C72.2364 2.73682 71.4706 6.28025 68.8108 11.2057C66.6766 15.1524 64.0938 18.9088 64.0938 18.9088C64.0938 18.9088 65.5166 19.5478 66.2869 19.7698C67.2566 20.0507 68.0722 20.1549 68.0722 20.1549Z" fill="#7B4A0E"/>
<path d="M35.04 31.5647C35.6291 32.1266 36.5217 31.5376 37.1063 30.1601C37.6953 28.7826 37.6863 28.0122 37.2331 27.686C36.6713 27.2782 35.7288 28.1708 35.3164 28.9638C34.8633 29.8429 34.596 31.1388 35.04 31.5647ZM55.4941 9.12146C55.4941 9.12146 52.0458 11.6001 48.3664 14.9713C44.9906 18.0661 42.7522 20.4858 42.4441 21.0477C42.1178 21.6504 42.1133 22.5022 42.367 22.9372C42.6208 23.3722 43.1827 23.5988 43.6947 23.2182C44.2067 22.833 47.8544 18.8002 51.1486 15.9183C54.1619 13.2811 56.4864 11.6091 56.4864 11.6091C56.4864 11.6091 57.4289 9.94162 57.2749 9.56099C57.1208 9.17584 55.4941 9.12146 55.4941 9.12146Z" fill="#E6EDCC"/>
<path d="M55.4922 9.12141C55.4922 9.12141 58.0388 7.16844 60.8119 5.79547C63.3902 4.51766 65.9548 3.45281 66.417 4.37719C66.8566 5.25625 63.9838 6.4525 61.4553 8.06563C58.9269 9.67875 56.4936 11.6045 56.4936 11.6045C56.4936 11.6045 56.122 10.9248 55.8819 10.295C55.7295 9.91161 55.5994 9.51976 55.4922 9.12141Z" fill="#F8A643"/>
<path d="M57.5949 17.7852C55.0709 15.4606 51.5592 16.086 49.8283 18.1522C48.052 20.2819 48.1834 23.5353 50.2814 25.4928C52.1891 27.2691 55.737 27.6724 57.8758 25.1802C59.7789 22.9689 59.6611 19.6838 57.5949 17.7852Z" fill="#E1E1E1"/>
<path d="M51.1323 18.9724C49.6324 20.4451 49.714 23.3632 51.4993 24.6954C53.0581 25.8599 55.2693 25.801 56.6559 24.3827C58.0424 22.9644 58.0424 20.3861 56.742 19.054C55.2467 17.5269 52.8496 17.2868 51.1323 18.9724Z" fill="#9747FF"/>
<path d="M39.6582 34.8407C39.6582 34.8407 42.463 31.9951 42.7712 32.3032C43.0793 32.6114 43.0385 34.3378 41.6973 36.259C40.3515 38.1803 37.3926 41.6014 35.0499 43.9078C32.739 46.1779 29.481 48.7743 29.1729 48.729C28.9327 48.6928 27.9585 48.2079 27.5688 47.7367C27.1882 47.27 28.3255 45.0632 28.7832 44.3337C29.2454 43.6042 39.6582 34.8407 39.6582 34.8407Z" fill="#A02524"/>
<path d="M26.6182 46.1508C26.5819 46.8033 27.5788 47.7549 27.5788 47.7549L42.7675 32.3078C42.7675 32.3078 42.0561 31.5058 39.9627 32.8063C37.8511 34.1203 36.0024 35.6972 33.2746 38.3389C29.4728 42.0274 26.6544 45.4983 26.6182 46.1508Z" fill="#F7941D"/>
<path d="M25.6351 16.743C25.1321 17.246 25.1095 18.0525 25.6714 18.5147C26.1698 18.9271 26.9809 18.6597 27.2845 18.2882C27.5881 17.9166 27.5518 17.11 27.1486 16.7113C26.7453 16.308 25.9432 16.4394 25.6351 16.743Z" fill="white"/>
<path opacity="0.5" d="M35.5891 16.1539C35.2085 16.5753 35.3308 17.2006 35.6843 17.4317C36.0377 17.6628 36.5678 17.6402 36.8261 17.323C37.0572 17.0375 37.0844 16.4666 36.731 16.1131C36.4228 15.8095 35.8338 15.882 35.5891 16.1539Z" fill="white"/>
<path d="M42.1703 5.38763C42.1703 5.38763 42.7231 3.81076 43.0494 3.79263C43.3801 3.77451 43.8559 5.36951 43.8559 5.36951C43.8559 5.36951 45.4917 5.38763 45.6005 5.62779C45.7409 5.93592 44.5537 6.96904 44.5537 6.96904C44.5537 6.96904 44.9389 8.50967 44.7576 8.69545C44.5537 8.89935 43.1445 8.08826 43.1445 8.08826C43.1445 8.08826 41.6945 9.09873 41.3819 8.82232C41.11 8.58217 41.6764 6.95092 41.6764 6.95092C41.6764 6.95092 40.317 5.95857 40.3895 5.68217C40.4937 5.29248 42.1703 5.38763 42.1703 5.38763ZM60.9569 43.1964C61.5051 43.5 62.1939 43.3278 62.4476 42.7433C62.6787 42.2222 62.2528 41.6014 61.8676 41.4337C61.4825 41.2661 60.8073 41.4881 60.5626 41.9276C60.3225 42.3626 60.6261 43.0151 60.9569 43.1964ZM68.7416 29.8337C68.4289 29.3489 67.7537 29.1903 67.3142 29.58C66.8883 29.9606 66.9925 30.5587 67.2326 30.8623C67.4728 31.1659 68.1162 31.2792 68.5059 31.03C68.8956 30.7808 68.9319 30.1237 68.7416 29.8337Z" fill="white"/>
<path d="M6 54.0138C10.1651 53.8036 18.1676 55.9064 16.8566 66" stroke="#415301" stroke-width="2" stroke-linecap="round"/>
<path d="M3 59.0115C6.40783 58.8363 12.9553 60.5887 11.8827 69" stroke="#415301" stroke-width="2" stroke-linecap="round"/>
<path d="M1 65.0069C2.89324 64.9018 6.53074 65.9532 5.93483 71" stroke="#415301" stroke-width="2" stroke-linecap="round"/>
<defs>
<linearGradient id="paint0_linear_3682_4935" x1="37.7695" y1="20.6353" x2="56.0222" y2="24.8616" gradientUnits="userSpaceOnUse">
<stop stop-color="#83A602"/>
<stop offset="1" stop-color="#C1D280"/>
</linearGradient>
</defs>
</svg>
