<svg width="189" height="132" viewBox="0 0 189 132" fill="none" xmlns="http://www.w3.org/2000/svg">
<path d="M55.9648 25.71L59.7867 110.93L169.325 111.859" stroke="#9747FF" stroke-miterlimit="10" stroke-linecap="round" stroke-linejoin="round"/>
<path d="M61.2529 107.739C62.5699 99.8348 72.127 73.2684 85.9672 67.278C99.8075 61.2875 111.246 88.956 128.728 89.2671C146.21 89.5781 158.756 44.0693 161.666 37.1955" stroke="#9747FF" stroke-miterlimit="10" stroke-linecap="round" stroke-linejoin="round"/>
<path d="M45.3154 106.26C45.0038 107.993 44.9426 109.788 45.3697 111.526C45.8694 113.558 47.6294 114.39 48.7716 112.734C50.0592 110.868 49.3007 106.573 48.969 105.822C48.3441 104.409 46.8112 103.468 45.6689 105.124" stroke="#9747FF" stroke-miterlimit="10" stroke-linecap="round" stroke-linejoin="round"/>
<path d="M43.7826 35.2455C43.3429 41.7794 47.4211 43.2015 48.1268 35.5957C48.3188 38.3163 48.5116 41.0359 48.7036 43.7565C48.7616 44.5762 48.8125 45.4423 48.5131 46.1609C48.1139 47.1213 47.0688 47.5789 46.2206 47.1639C45.3723 46.7489 44.8349 45.5192 45.0407 44.464" stroke="#9747FF" stroke-miterlimit="10" stroke-linecap="round" stroke-linejoin="round"/>
<path d="M176.387 104.552C177.763 107.675 179.8 110.402 182.239 112.384" stroke="#9747FF" stroke-miterlimit="10" stroke-linecap="round" stroke-linejoin="round"/>
<path d="M180.704 104.188C179.572 107.67 177.715 110.765 175.342 113.124" stroke="#9747FF" stroke-miterlimit="10" stroke-linecap="round" stroke-linejoin="round"/>
<path d="M60.8281 94.2402C61.3948 99.0147 61.5038 106.71 61.5038 106.71" stroke="#9747FF" stroke-miterlimit="10" stroke-linecap="round" stroke-linejoin="round"/>
<path d="M65.3043 86.6827C65.2076 93.4882 66.3524 106.251 66.3524 106.251" stroke="#9747FF" stroke-miterlimit="10" stroke-linecap="round" stroke-linejoin="round"/>
<path d="M70.0281 79.2428C69.6264 88.5446 69.9951 97.892 71.1269 107.086" stroke="#9747FF" stroke-miterlimit="10" stroke-linecap="round" stroke-linejoin="round"/>
<path d="M75.2058 73.8042C75.042 82.4718 75.4777 98.0027 76.1259 106.623" stroke="#9747FF" stroke-miterlimit="10" stroke-linecap="round" stroke-linejoin="round"/>
<path d="M79.6926 71.5989C79.1163 82.6326 79.2457 93.7152 80.0802 104.701" stroke="#9747FF" stroke-miterlimit="10" stroke-linecap="round" stroke-linejoin="round"/>
<path d="M84.269 68.9312C84.1536 80.7043 84.3711 92.4781 84.9195 104.221" stroke="#9747FF" stroke-miterlimit="10" stroke-linecap="round" stroke-linejoin="round"/>
<path d="M88.5156 69.3303C89.2835 81.6761 89.6808 94.064 89.7065 106.458" stroke="#9747FF" stroke-miterlimit="10" stroke-linecap="round" stroke-linejoin="round"/>
<path d="M93.2148 68.8591C93.591 81.5253 93.9672 94.1924 94.3433 106.859" stroke="#9747FF" stroke-miterlimit="10" stroke-linecap="round" stroke-linejoin="round"/>
<path d="M98.3789 72.4111C98.6226 83.7259 98.8663 95.0406 99.1099 106.355" stroke="#9747FF" stroke-miterlimit="10" stroke-linecap="round" stroke-linejoin="round"/>
<path d="M102.887 75.054C103.118 84.7346 103.351 94.4143 103.582 104.095" stroke="#9747FF" stroke-miterlimit="10" stroke-linecap="round" stroke-linejoin="round"/>
<path d="M106.469 77.2202C106.864 87.072 107.259 96.9228 107.655 106.775" stroke="#9747FF" stroke-miterlimit="10" stroke-linecap="round" stroke-linejoin="round"/>
<path d="M111.199 81.2219C111.402 90.1348 111.926 106.838 111.985 106.276" stroke="#9747FF" stroke-miterlimit="10" stroke-linecap="round" stroke-linejoin="round"/>
<path d="M116.332 86.0942C116.448 93.1195 116.699 100.139 117.087 107.146" stroke="#9747FF" stroke-miterlimit="10" stroke-linecap="round" stroke-linejoin="round"/>
<path d="M120.254 87.3745C120.67 93.371 121.103 100.624 121.519 106.621" stroke="#9747FF" stroke-miterlimit="10" stroke-linecap="round" stroke-linejoin="round"/>
<path d="M124.863 87.823C125.076 93.4961 125.302 100.419 125.515 106.093" stroke="#9747FF" stroke-miterlimit="10" stroke-linecap="round" stroke-linejoin="round"/>
<path d="M129.711 87.3855C129.75 93.0304 129.798 99.9202 129.837 105.565" stroke="#9747FF" stroke-miterlimit="10" stroke-linecap="round" stroke-linejoin="round"/>
<path d="M134.894 86.8466C134.62 92.5357 134.625 99.4935 134.882 105.177C134.892 105.396 134.938 105.669 135.108 105.715C135.278 105.76 135.296 105.29 135.144 105.401" stroke="#9747FF" stroke-miterlimit="10" stroke-linecap="round" stroke-linejoin="round"/>
<path d="M138.297 84.1714C138.479 90.7266 138.673 98.5311 138.855 105.087" stroke="#9747FF" stroke-miterlimit="10" stroke-linecap="round" stroke-linejoin="round"/>
<path d="M142.227 83.6809C141.991 90.8653 142.227 99.3192 142.905 106.449" stroke="#9747FF" stroke-miterlimit="10" stroke-linecap="round" stroke-linejoin="round"/>
<path d="M145.445 78.76C145.696 87.554 145.959 97.5966 146.209 106.391" stroke="#9747FF" stroke-miterlimit="10" stroke-linecap="round" stroke-linejoin="round"/>
<path d="M150.196 72.8761C149.84 84.5657 150.277 94.4072 151.547 105.983" stroke="#9747FF" stroke-miterlimit="10" stroke-linecap="round" stroke-linejoin="round"/>
<path d="M154.743 65.2777C154.09 79.1482 154.332 93.0734 155.467 106.87" stroke="#9747FF" stroke-miterlimit="10" stroke-linecap="round" stroke-linejoin="round"/>
<path d="M158.823 58.1817C159.177 74.0924 159.24 90.0184 159.014 105.944" stroke="#9747FF" stroke-miterlimit="10" stroke-linecap="round" stroke-linejoin="round"/>
<path d="M163.794 50.5309C163.886 68.863 164.315 87.1869 165.079 105.484" stroke="#9747FF" stroke-miterlimit="10" stroke-linecap="round" stroke-linejoin="round"/>
<path d="M18.9137 69.0117C20.5398 67.9275 21.5928 65.8384 22.0568 63.6277C22.5207 61.417 22.4569 59.0769 22.2857 56.7834C22.2712 56.5911 22.2529 56.3875 22.1594 56.2291C21.8945 55.7807 21.3146 56.0501 21.0063 56.4357C20.0296 57.6615 19.8354 59.5273 19.7647 61.2604C19.6148 64.909 19.7872 68.5875 20.2778 72.2102C20.353 72.768 20.4483 73.3556 20.758 73.7808C21.0676 74.2061 21.6653 74.3648 21.9738 73.9584" stroke="#9747FF" stroke-miterlimit="10" stroke-linecap="round" stroke-linejoin="round"/>
<path d="M23.7344 67.8848C23.7486 69.9436 23.7629 72.0024 23.7772 74.0602" stroke="#9747FF" stroke-miterlimit="10" stroke-linecap="round" stroke-linejoin="round"/>
<path d="M26.5445 67.0555C26.9868 69.0561 27.43 71.0557 27.8723 73.0564C26.9761 70.3732 27.6781 67.141 29.5137 65.4924C30.2691 67.4124 30.621 69.5378 30.5261 71.6044C30.463 69.2935 31.1994 67.0221 32.5232 65.4429C33.4522 68.0042 33.8321 70.8188 33.6148 73.5257" stroke="#9747FF" stroke-miterlimit="10" stroke-linecap="round" stroke-linejoin="round"/>
<path d="M18.8945 80.6033C20.0713 82.8461 21.4177 84.9653 22.9093 86.923" stroke="#9747FF" stroke-miterlimit="10" stroke-linecap="round" stroke-linejoin="round"/>
<path d="M21.6513 79.9673C20.3991 82.4573 19.4585 85.1882 18.8687 88.0432" stroke="#9747FF" stroke-miterlimit="10" stroke-linecap="round" stroke-linejoin="round"/>
<path d="M25.2734 83.272C26.6736 83.2692 30.2701 83.5182 30.1839 83.6465" stroke="#9747FF" stroke-miterlimit="10" stroke-linecap="round" stroke-linejoin="round"/>
<path d="M27.1992 80.95C28.0304 82.0711 29.119 82.9134 30.2966 83.3473C29.4034 84.0462 28.626 84.9525 28.0169 86.0065" stroke="#9747FF" stroke-miterlimit="10" stroke-linecap="round" stroke-linejoin="round"/>
<path d="M37.0389 81.6534C37.0071 80.1743 35.6385 78.0655 34.3377 79.2984C32.612 80.9348 32.537 83.3678 34.1232 84.3078C37.5088 86.3132 38.2469 77.0201 41.2165 79.6912C43.2248 81.4984 42.8607 86.9013 37.633 82.3962" stroke="#9747FF" stroke-miterlimit="10" stroke-linecap="round" stroke-linejoin="round"/>
<path d="M93.7898 30.5501C93.9312 29.1534 93.6524 27.6835 93.0197 26.481C92.4294 26.0463 91.6361 26.421 91.2404 27.0848C90.8448 27.7485 90.7497 28.613 90.6865 29.4408C90.3785 33.4703 90.5361 37.5684 91.1524 41.5756C91.6522 44.8259 92.424 48.3663 91.1925 51.2465C90.8102 52.1403 89.8779 52.9682 89.2197 52.3195C88.4191 51.531 89.1882 49.6967 88.4444 48.8289" stroke="#9747FF" stroke-miterlimit="10" stroke-linecap="round" stroke-linejoin="round"/>
<path d="M96.0997 37.4228C97.4285 37.636 98.7819 37.5108 100.043 37.0555" stroke="#9747FF" stroke-miterlimit="10" stroke-linecap="round" stroke-linejoin="round"/>
<path d="M96.5006 41.5262C97.9265 41.349 99.3515 41.1731 100.777 40.996" stroke="#9747FF" stroke-miterlimit="10" stroke-linecap="round" stroke-linejoin="round"/>
<path d="M106.278 35.5333C106.92 38.0756 107.813 40.5431 108.932 42.8653C108.897 37.3708 109.06 31.888 109.422 26.4397C109.422 26.4397 128.127 24.417 140.923 24.5205" stroke="#9747FF" stroke-miterlimit="10" stroke-linecap="round" stroke-linejoin="round"/>
<path d="M113.812 32.9333C115.45 35.4549 117.411 37.6802 119.597 39.4953" stroke="#9747FF" stroke-miterlimit="10" stroke-linecap="round" stroke-linejoin="round"/>
<path d="M117.803 32.5958C116.484 35.2886 115.265 38.0571 114.15 40.8895" stroke="#9747FF" stroke-miterlimit="10" stroke-linecap="round" stroke-linejoin="round"/>
<path d="M124.929 33.892C124.941 36.1441 125.193 38.3965 125.678 40.571" stroke="#9747FF" stroke-miterlimit="10" stroke-linecap="round" stroke-linejoin="round"/>
<path d="M122.046 37.2007C123.968 37.0549 125.89 36.9079 127.812 36.762" stroke="#9747FF" stroke-miterlimit="10" stroke-linecap="round" stroke-linejoin="round"/>
<path d="M136.419 33.7919C135.71 32.8269 133.539 32.0711 131.881 32.8554C130.223 33.6409 130.141 36.1162 130.43 37.4606C130.874 39.5212 133.399 40.0309 134.754 38.8034C136.11 37.5758 136.571 35.4028 136.951 33.3815C136.913 35.4953 137.066 37.6282 137.406 39.7307" stroke="#9747FF" stroke-miterlimit="10" stroke-linecap="round" stroke-linejoin="round"/>
<path d="M139.922 29.7669C140.265 28.6426 140.965 26.5255 142.487 27.8535C144.01 29.1814 141.872 32.5615 140.454 33.3225C141.817 33.322 142.608 33.3186 143.969 33.3181" stroke="#9747FF" stroke-miterlimit="10" stroke-linecap="round" stroke-linejoin="round"/>
<path d="M110.584 46.1191C120.979 44.7143 131.449 43.9064 141.947 43.6978" stroke="#9747FF" stroke-miterlimit="10" stroke-linecap="round" stroke-linejoin="round"/>
<path d="M121.152 50.1572C123.603 51.94 126.054 53.7228 128.504 55.5045" stroke="#9747FF" stroke-miterlimit="10" stroke-linecap="round" stroke-linejoin="round"/>
<path d="M126.433 49.4288C124.762 51.9348 123.31 54.6591 122.108 57.5461" stroke="#9747FF" stroke-miterlimit="10" stroke-linecap="round" stroke-linejoin="round"/>
</svg>
