<svg width="192" height="132" viewBox="0 0 192 132" fill="none" xmlns="http://www.w3.org/2000/svg">
<path d="M57.9609 24.2493L63.4099 109.86L171.321 109.32" stroke="#39900E" stroke-miterlimit="10" stroke-linecap="round" stroke-linejoin="round"/>
<path d="M64.6205 106.622C65.7634 98.6536 74.6662 71.8024 88.2023 65.5905C101.738 59.3786 113.572 87.0559 130.826 87.1336C148.079 87.2112 159.555 41.266 162.29 34.3125" stroke="#39900E" stroke-miterlimit="10" stroke-linecap="round" stroke-linejoin="round"/>
<path d="M47.3378 104.298C47.0715 106.027 47.0472 107.815 47.4917 109.54C48.0116 111.557 49.7211 112.362 50.7882 110.698C51.991 108.823 51.1784 104.556 50.8448 103.813C50.2162 102.414 48.7231 101.497 47.656 103.161" stroke="#39900E" stroke-miterlimit="10" stroke-linecap="round" stroke-linejoin="round"/>
<path d="M45.7753 33.3073C45.4804 39.8161 49.4025 41.1773 49.9308 33.5979C50.1663 36.3031 50.4025 39.0073 50.6379 41.7126C50.709 42.5276 50.7743 43.3889 50.502 44.1082C50.1392 45.0693 49.1499 45.5387 48.3318 45.1369C47.5138 44.7352 46.9769 43.5184 47.1534 42.4655" stroke="#39900E" stroke-miterlimit="10" stroke-linecap="round" stroke-linejoin="round"/>
<path d="M178.383 102.594C179.784 105.696 181.821 108.394 184.235 110.342" stroke="#39900E" stroke-miterlimit="10" stroke-linecap="round" stroke-linejoin="round"/>
<path d="M182.54 102.16C181.508 105.651 179.765 108.765 177.506 111.152" stroke="#39900E" stroke-miterlimit="10" stroke-linecap="round" stroke-linejoin="round"/>
<path d="M62.8281 92.2468C63.3095 97.0123 63.5038 104.703 63.5038 104.703" stroke="#39900E" stroke-miterlimit="10" stroke-linecap="round" stroke-linejoin="round"/>
<path d="M67.2941 84.6927C67.3264 91.4969 68.3485 104.24 68.3485 104.24" stroke="#39900E" stroke-miterlimit="10" stroke-linecap="round" stroke-linejoin="round"/>
<path d="M71.9505 77.2524C71.8051 86.5565 72.1998 95.8963 73.1269 105.073" stroke="#39900E" stroke-miterlimit="10" stroke-linecap="round" stroke-linejoin="round"/>
<path d="M77.168 71.8113C77.1804 80.4799 77.6338 96.0033 78.1259 104.615" stroke="#39900E" stroke-miterlimit="10" stroke-linecap="round" stroke-linejoin="round"/>
<path d="M81.4682 69.5997C81.2805 80.6394 81.4839 91.7194 82.0763 102.694" stroke="#39900E" stroke-miterlimit="10" stroke-linecap="round" stroke-linejoin="round"/>
<path d="M86.2103 66.9353C86.2804 78.7092 86.5159 90.4799 86.9156 102.215" stroke="#39900E" stroke-miterlimit="10" stroke-linecap="round" stroke-linejoin="round"/>
<path d="M90.5156 67.3406C91.1396 79.675 91.5397 92.0561 91.7147 104.448" stroke="#39900E" stroke-miterlimit="10" stroke-linecap="round" stroke-linejoin="round"/>
<path d="M95.2148 66.8684C95.591 79.5284 95.9672 92.1893 96.3433 104.849" stroke="#39900E" stroke-miterlimit="10" stroke-linecap="round" stroke-linejoin="round"/>
<path d="M100.379 70.4163C100.623 81.7276 100.866 93.0389 101.11 104.35" stroke="#39900E" stroke-miterlimit="10" stroke-linecap="round" stroke-linejoin="round"/>
<path d="M104.887 73.0588C105.118 82.7361 105.35 92.4122 105.582 102.089" stroke="#39900E" stroke-miterlimit="10" stroke-linecap="round" stroke-linejoin="round"/>
<path d="M108.469 75.231C108.864 85.0756 109.259 94.9192 109.655 104.764" stroke="#39900E" stroke-miterlimit="10" stroke-linecap="round" stroke-linejoin="round"/>
<path d="M113.199 79.2285C113.433 88.1376 113.957 104.832 113.985 104.269" stroke="#39900E" stroke-miterlimit="10" stroke-linecap="round" stroke-linejoin="round"/>
<path d="M118.332 84.1006C118.498 91.1231 118.75 98.138 119.087 105.139" stroke="#39900E" stroke-miterlimit="10" stroke-linecap="round" stroke-linejoin="round"/>
<path d="M122.25 85.3872C122.66 91.3754 123.104 98.6193 123.515 104.608" stroke="#39900E" stroke-miterlimit="10" stroke-linecap="round" stroke-linejoin="round"/>
<path d="M126.863 85.8286C127.072 91.498 127.306 98.4173 127.515 104.087" stroke="#39900E" stroke-miterlimit="10" stroke-linecap="round" stroke-linejoin="round"/>
<path d="M131.707 85.3855C131.746 91.0304 131.794 97.9202 131.833 103.565" stroke="#39900E" stroke-miterlimit="10" stroke-linecap="round" stroke-linejoin="round"/>
<path d="M136.773 84.8485C136.676 90.54 136.771 97.4965 137.008 103.176C137.017 103.395 137.05 103.667 137.157 103.71C137.264 103.754 137.269 103.284 137.176 103.396" stroke="#39900E" stroke-miterlimit="10" stroke-linecap="round" stroke-linejoin="round"/>
<path d="M140.297 82.1758C140.476 88.7281 140.676 96.5295 140.855 103.083" stroke="#39900E" stroke-miterlimit="10" stroke-linecap="round" stroke-linejoin="round"/>
<path d="M144.165 81.6862C144.111 88.8722 144.375 97.3215 144.901 104.442" stroke="#39900E" stroke-miterlimit="10" stroke-linecap="round" stroke-linejoin="round"/>
<path d="M147.445 76.7659C147.693 85.5559 147.962 95.5942 148.209 104.384" stroke="#39900E" stroke-miterlimit="10" stroke-linecap="round" stroke-linejoin="round"/>
<path d="M152.127 70.8881C152.049 82.5787 152.496 92.4117 153.547 103.968" stroke="#39900E" stroke-miterlimit="10" stroke-linecap="round" stroke-linejoin="round"/>
<path d="M156.525 63.2812C156.316 77.158 156.632 91.0786 157.467 104.859" stroke="#39900E" stroke-miterlimit="10" stroke-linecap="round" stroke-linejoin="round"/>
<path d="M160.705 56.1832C160.987 72.0901 161.153 88.0156 161.205 103.944" stroke="#39900E" stroke-miterlimit="10" stroke-linecap="round" stroke-linejoin="round"/>
<path d="M165.788 48.5402C166.043 66.8701 166.474 85.1877 167.079 103.474" stroke="#39900E" stroke-miterlimit="10" stroke-linecap="round" stroke-linejoin="round"/>
<path d="M21.1263 67.0258C22.6039 65.9227 23.5351 63.8245 23.9214 61.6129C24.3078 59.4013 24.2055 57.0676 24.0053 54.7818C23.9883 54.5902 23.9678 54.3873 23.8786 54.2306C23.6264 53.7867 23.0972 54.0632 22.8204 54.452C21.9435 55.6878 21.7993 57.5517 21.7663 59.2817C21.696 62.9235 21.923 66.591 22.4421 70.1986C22.5217 70.7541 22.6204 71.339 22.9135 71.7591C23.2066 72.1792 23.7601 72.3296 24.0367 71.9201" stroke="#39900E" stroke-miterlimit="10" stroke-linecap="round" stroke-linejoin="round"/>
<path d="M25.7344 65.8848C25.7486 67.9437 25.7629 70.0027 25.7772 72.0607" stroke="#39900E" stroke-miterlimit="10" stroke-linecap="round" stroke-linejoin="round"/>
<path d="M28.5754 65.1002C29.0473 67.0975 29.52 69.0937 29.992 71.091C29.0627 68.4164 29.6859 65.1706 31.4489 63.4952C32.2255 65.4076 32.6114 67.531 32.5591 69.6016C32.452 67.2886 33.1278 65.0044 34.3916 63.4054C35.3505 65.9575 35.7773 68.7707 35.6179 71.484" stroke="#39900E" stroke-miterlimit="10" stroke-linecap="round" stroke-linejoin="round"/>
<path d="M20.8945 78.6375C22.0789 80.8593 23.4253 82.9554 24.9093 84.8885" stroke="#39900E" stroke-miterlimit="10" stroke-linecap="round" stroke-linejoin="round"/>
<path d="M23.5062 77.9672C22.3591 80.4624 21.5141 83.1934 21.0061 86.0431" stroke="#39900E" stroke-miterlimit="10" stroke-linecap="round" stroke-linejoin="round"/>
<path d="M27.2734 81.3279C28.6715 81.309 32.2674 81.4792 32.1838 81.5897" stroke="#39900E" stroke-miterlimit="10" stroke-linecap="round" stroke-linejoin="round"/>
<path d="M29.1992 78.9773C30.0264 80.0847 31.0977 80.9104 32.2472 81.3276C31.3954 82.0367 30.6597 82.9513 30.0899 84.0108" stroke="#39900E" stroke-miterlimit="10" stroke-linecap="round" stroke-linejoin="round"/>
<path d="M39.0435 79.6608C38.9827 78.1729 37.5886 76.0694 36.3276 77.3275C34.6549 78.9972 34.6291 81.4463 36.2151 82.3707C39.6003 84.343 40.1453 74.9825 43.1326 77.6302C45.153 79.4215 44.9004 84.8627 39.6453 80.4001" stroke="#39900E" stroke-miterlimit="10" stroke-linecap="round" stroke-linejoin="round"/>
<path d="M95.4306 28.538C95.5356 27.1431 95.2497 25.6807 94.6409 24.4897C94.0856 24.0641 93.3572 24.4483 93.0028 25.1156C92.6485 25.7829 92.5765 26.6463 92.5334 27.4729C92.323 31.4959 92.5456 35.5812 93.1916 39.5697C93.7156 42.8049 94.497 46.3257 93.4092 49.2147C93.0716 50.1112 92.2228 50.9494 91.6006 50.3111C90.8438 49.5353 91.5225 47.6956 90.8168 46.84" stroke="#39900E" stroke-miterlimit="10" stroke-linecap="round" stroke-linejoin="round"/>
<path d="M98.103 35.4328C99.4328 35.6075 100.781 35.4787 102.03 35.0554" stroke="#39900E" stroke-miterlimit="10" stroke-linecap="round" stroke-linejoin="round"/>
<path d="M98.5109 39.5264C99.9299 39.3491 101.348 39.1728 102.767 38.9955" stroke="#39900E" stroke-miterlimit="10" stroke-linecap="round" stroke-linejoin="round"/>
<path d="M108.493 33.779C109.179 36.3276 110.112 38.7974 111.266 41.1181C111.121 35.592 111.174 30.0751 111.424 24.5901C111.424 24.5901 129.893 22.3042 142.558 22.2362" stroke="#39900E" stroke-miterlimit="10" stroke-linecap="round" stroke-linejoin="round"/>
<path d="M115.812 30.9685C117.463 33.4709 119.424 35.6725 121.597 37.4603" stroke="#39900E" stroke-miterlimit="10" stroke-linecap="round" stroke-linejoin="round"/>
<path d="M119.651 30.5885C118.433 33.2877 117.313 36.061 116.294 38.8966" stroke="#39900E" stroke-miterlimit="10" stroke-linecap="round" stroke-linejoin="round"/>
<path d="M126.928 31.9003C126.977 34.15 127.23 36.3969 127.677 38.563" stroke="#39900E" stroke-miterlimit="10" stroke-linecap="round" stroke-linejoin="round"/>
<path d="M124.055 35.2001C125.971 35.0544 127.887 34.9077 129.803 34.7621" stroke="#39900E" stroke-miterlimit="10" stroke-linecap="round" stroke-linejoin="round"/>
<path d="M138.318 31.7502C137.603 30.7922 135.46 30.0635 133.85 30.8722C132.24 31.6819 132.208 34.1648 132.518 35.5088C132.994 37.5688 135.479 38.0459 136.784 36.797C138.089 35.5481 138.499 33.3632 138.831 31.3316C138.836 33.4515 139.028 35.5878 139.402 37.6912" stroke="#39900E" stroke-miterlimit="10" stroke-linecap="round" stroke-linejoin="round"/>
<path d="M141.965 27.7942C142.276 26.6668 142.915 24.5432 144.421 25.8491C145.926 27.1549 143.914 30.5591 142.552 31.338C143.876 31.3194 144.645 31.3054 145.968 31.2867" stroke="#39900E" stroke-miterlimit="10" stroke-linecap="round" stroke-linejoin="round"/>
<path d="M112.626 44.1192C122.979 42.8056 133.418 41.9977 143.897 41.698" stroke="#39900E" stroke-miterlimit="10" stroke-linecap="round" stroke-linejoin="round"/>
<path d="M123.148 48.1919C125.599 49.9515 128.05 51.7111 130.5 53.4696" stroke="#39900E" stroke-miterlimit="10" stroke-linecap="round" stroke-linejoin="round"/>
<path d="M128.285 47.4111C126.716 49.9325 125.363 52.6687 124.255 55.5637" stroke="#39900E" stroke-miterlimit="10" stroke-linecap="round" stroke-linejoin="round"/>
</svg>
